<?xml version="1.0" encoding="UTF-8"?>
<svg version="1.1" xmlns="http://www.w3.org/2000/svg" width="342" height="342">
<path d="M0 0 C3.81748118 3.00349734 7.36103403 6.12488104 10.69189453 9.65844727 C12.42614891 11.42593141 14.22648886 13.03650482 16.10546875 14.6484375 C20.50744175 18.47101758 24.76266827 22.43408432 29 26.4375 C29.71607422 27.11039063 30.43214844 27.78328125 31.16992188 28.4765625 C35.20284537 32.2782993 39.12844935 36.13403431 42.90991211 40.1875 C44.49548685 41.75414247 44.49548685 41.75414247 47.4375 41.4375 C48.626435 40.04474758 49.80673434 38.64350507 50.9375 37.203125 C53.12570755 34.62742236 55.6496386 32.53105637 58.21484375 30.33984375 C63.85126415 25.51570186 69.31252829 20.48605545 74.75366211 15.44384766 C76.78505669 13.56856122 78.83050688 11.70911838 80.87988281 9.85351562 C81.91260404 8.91467814 82.94067743 7.97070072 83.96386719 7.02148438 C101.65666027 -9.32597812 121.31346369 -16.18768855 145.25 -17.3125 C146.96606445 -17.41498047 146.96606445 -17.41498047 148.71679688 -17.51953125 C150.35165039 -17.59494141 150.35165039 -17.59494141 152.01953125 -17.671875 C153.01186768 -17.72311523 154.0042041 -17.77435547 155.02661133 -17.82714844 C156.22000122 -17.69614746 156.22000122 -17.69614746 157.4375 -17.5625 C159.90009908 -13.86860138 159.71408654 -11.08382034 159.68473816 -6.8122406 C159.68715257 -6.01479575 159.68956699 -5.21735089 159.69205457 -4.39574105 C159.69770517 -1.71483538 159.68901824 0.96583344 159.68041992 3.64672852 C159.68149246 5.56508448 159.68343072 7.48344013 159.68617249 9.40179443 C159.69102818 14.61855872 159.68335633 19.83523773 159.67321944 25.0519917 C159.6644517 30.5029982 159.66619613 35.95400193 159.6665802 41.40501404 C159.66564304 50.55900504 159.65695169 59.71296294 159.64331055 68.86694336 C159.6275798 79.46257312 159.62231258 90.05816662 159.6230461 100.65380722 C159.62365567 110.8322332 159.61855703 121.01064733 159.61025429 131.18906975 C159.60671641 135.52755768 159.60489032 139.86604141 159.60436058 144.20453072 C159.60335873 149.30899516 159.59727512 154.41342896 159.58719444 159.5178833 C159.58426462 161.39567312 159.58304504 163.27346646 159.58362198 165.15125847 C159.58410995 167.70561337 159.57848393 170.2598814 159.57121277 172.81422424 C159.57276137 173.56508712 159.57430997 174.31594999 159.5759055 175.08956629 C159.551679 180.209142 159.551679 180.209142 158.4375 182.4375 C148.84400422 182.77477134 141.08166041 183.02923844 132.6875 177.6875 C128.21481172 173.21481172 125.60143331 168.0685773 125.31445217 161.71202469 C125.31537396 160.66118069 125.31629576 159.61033669 125.31724548 158.52764893 C125.31518349 156.7145649 125.31518349 156.7145649 125.31307983 154.86485291 C125.31661871 153.52871679 125.32025351 152.19258093 125.32397461 150.85644531 C125.32425674 149.44700625 125.32409825 148.03756703 125.3235321 146.62812805 C125.32324512 142.80409383 125.32912587 138.98009096 125.33610606 135.15606403 C125.34235606 131.15887422 125.3429447 127.16168369 125.34413147 123.16448975 C125.34723992 115.59622381 125.35544678 108.02797232 125.36548096 100.45971274 C125.37665717 91.84309909 125.38215635 83.22648476 125.38717639 74.60986567 C125.39762978 56.88573559 125.41521983 39.16161896 125.4375 21.4375 C123.18996051 22.69948861 120.94515077 23.96595677 118.70166016 25.23510742 C117.75317955 25.76675129 117.75317955 25.76675129 116.78553772 26.30913544 C112.01288886 29.01587887 107.84528478 32.01845086 103.8125 35.75 C103.19624756 36.30123535 102.57999512 36.8524707 101.94506836 37.42041016 C100.09684234 39.07974028 98.26549887 40.75594164 96.4375 42.4375 C95.32710775 43.44953136 94.21644179 44.4612625 93.10546875 45.47265625 C91.0846132 47.31741806 89.07202405 49.17013735 87.0625 51.02734375 C84.29097913 53.57202884 81.46522365 56.0419439 78.6171875 58.5 C76.86417016 60.05823763 75.1499739 61.639865 73.4453125 63.25 C55.39277338 80.28435652 55.39277338 80.28435652 48.3125 81.625 C37.84851972 81.11867837 32.40034066 76.22168114 25.12353516 69.07910156 C22.13209848 66.1665009 19.05930209 63.34092029 16 60.5 C14.72095919 59.3064127 13.44231175 58.11240372 12.1640625 56.91796875 C11.53918945 56.33450684 10.91431641 55.75104492 10.27050781 55.14990234 C9.08958809 54.04668299 7.90920729 52.94288632 6.72949219 51.83837891 C3.52831973 48.84358031 0.3094363 45.87014794 -2.93554688 42.92285156 C-4.03897221 41.91546264 -5.1364691 40.90154879 -6.22851562 39.88183594 C-14.93264045 31.77505301 -23.68111611 26.24226691 -34.5625 21.4375 C-34.40082336 22.65256226 -34.23914673 23.86762451 -34.0725708 25.11950684 C-33.39594611 31.2525892 -33.40712334 37.36093804 -33.40136719 43.52539062 C-33.39391983 45.45151436 -33.39391983 45.45151436 -33.38632202 47.41654968 C-33.37330287 50.9144429 -33.36677472 54.41231702 -33.36231136 57.91023064 C-33.35936587 60.10054143 -33.35525857 62.29084717 -33.35080719 64.4811554 C-33.33716495 71.34916134 -33.32748021 78.21715554 -33.3236053 85.08517408 C-33.31912107 92.98679975 -33.30154254 100.88825274 -33.2726047 108.78982592 C-33.25094586 114.91833866 -33.24089892 121.04680294 -33.23956418 127.17535353 C-33.23851992 130.82695661 -33.23269224 134.47839664 -33.21474457 138.12995911 C-33.1951087 142.20328178 -33.19956953 146.27624449 -33.20605469 150.34960938 C-33.19223251 152.14533638 -33.19223251 152.14533638 -33.1781311 153.9773407 C-33.21760609 161.90506798 -33.80958683 170.09853625 -39.3125 176.3125 C-39.76109375 176.84617188 -40.2096875 177.37984375 -40.671875 177.9296875 C-46.0765821 182.24005308 -51.28023423 182.88366253 -57.9375 182.6875 C-58.66066406 182.68234375 -59.38382813 182.6771875 -60.12890625 182.671875 C-65.40735119 182.59264881 -65.40735119 182.59264881 -66.5625 181.4375 C-66.67484075 178.92790935 -66.72191762 176.44515601 -66.72744751 173.93447876 C-66.73309105 173.13944832 -66.7387346 172.34441788 -66.74454916 171.52529562 C-66.76235785 168.84060047 -66.77299547 166.15592365 -66.78369141 163.47119141 C-66.79489983 161.55475116 -66.80653175 159.63831334 -66.81855774 157.72187805 C-66.84997284 152.50084566 -66.87504869 147.27980015 -66.8987546 142.05872774 C-66.92428553 136.60549146 -66.95463644 131.15228166 -66.98422241 125.69906616 C-67.03311228 116.53734856 -67.07778027 107.37561725 -67.12011719 98.21386719 C-67.16917623 87.61145317 -67.22547575 77.00909583 -67.28553832 66.40673888 C-67.3368327 57.31801717 -67.38418169 48.22928115 -67.42822587 39.14052141 C-67.45456783 33.70611002 -67.48230261 28.27171519 -67.5135994 22.83732986 C-67.54281208 17.72717106 -67.56708458 12.61701243 -67.58749962 7.50681114 C-67.59582234 5.62781991 -67.60588591 3.74883548 -67.61778831 1.86986351 C-67.63371567 -0.68860012 -67.64343041 -3.24701284 -67.65151978 -5.80551147 C-67.65764145 -6.55482575 -67.66376312 -7.30414002 -67.67007029 -8.07616079 C-67.67404964 -11.18738398 -67.55463595 -13.58609216 -66.5625 -16.5625 C-46.13620016 -24.52289496 -16.38758453 -11.94418475 0 0 Z " fill="#F34F37" transform="translate(124.5625,74.5625)"/>
<path d="M0 0 C3.32537544 0.12119819 4.26795837 1.2739307 6.62890625 3.6875 C7.33732666 4.48812866 7.33732666 4.48812866 8.06005859 5.30493164 C12.76377404 10.73566754 12.76377404 10.73566754 19.01953125 13.91015625 C20.87402256 14.00909628 22.73294758 14.04892097 24.58984375 14.01953125 C28.04941687 13.99149581 30.1760009 15.07141525 33 17 C35.48522988 19.68673501 36.8418238 21.52547139 38 25 C37.84317277 26.50106062 37.67521083 28.000974 37.5 29.5 C37.39931151 35.74268652 40.5676876 39.03222834 44.54296875 43.5546875 C49.47173233 48.68606269 49.47173233 48.68606269 56 50.8125 C56.639375 50.88082031 57.27875 50.94914062 57.9375 51.01953125 C60.0613536 51.06537699 60.0613536 51.06537699 62.33984375 50.51953125 C65.46198271 49.9097743 68.38276835 49.86763098 71.5625 49.875 C72.67753906 49.87242187 73.79257813 49.86984375 74.94140625 49.8671875 C77.51714502 49.97903312 79.54870254 50.28747536 82 51 C85.52558132 51.54239713 87.92041404 51.6970555 90.984375 49.71875 C93.10785709 47.90802884 95.05183817 45.99762688 97 44 C97.680625 43.37480469 98.36125 42.74960938 99.0625 42.10546875 C102.80259266 38.4290534 102.80259266 38.4290534 104.29296875 33.55078125 C104.22277073 31.85302911 104.12907496 30.15608281 104.01171875 28.4609375 C103.9918572 24.29001179 105.38405469 21.20711939 108 18 C110.49130225 15.96792397 112.87615559 14.77011442 116 14 C117.54556651 14.17709616 119.08758617 14.38730773 120.625 14.625 C123.63600515 14.8216753 125.35607089 14.49511073 127.76416016 12.64355469 C131.59884157 9.08469949 135.11261947 5.24068789 138.53295898 1.28515625 C140 0 140 0 143 0 C144.89679321 3.79358642 144.75493638 7.8897908 144 12 C142.04465105 15.101941 139.68538455 17.52118349 137 20 C134.79577526 21.75539447 134.79577526 21.75539447 134.91015625 23.91796875 C134.96042969 24.66691406 135.01070312 25.41585937 135.0625 26.1875 C135.15402279 31.37101785 134.26882874 35.60719154 130.5703125 39.5078125 C125.69521832 43.75229749 122.29333332 44.08995555 116.15625 43.7421875 C113.45461418 44.06520917 112.77690898 45.02680456 111 47 C110.34 47 109.68 47 109 47 C109 47.66 109 48.32 109 49 C107.625 50.625 107.625 50.625 106 52 C105.34 52 104.68 52 104 52 C103.71125 52.61875 103.4225 53.2375 103.125 53.875 C102 56 102 56 100 58 C99.40779623 62.27605961 99.77872329 66.25319111 101 70.375 C103.21801187 78.41529302 102.62766439 86.47595535 99 94 C97.5451961 96.35312544 96.00295252 98.62076124 94.421875 100.890625 C92.44156749 103.82844384 91.15569805 106.64847565 90 110 C89.70222656 110.78761719 89.40445313 111.57523437 89.09765625 112.38671875 C87.69103725 117.18042033 87.50084541 119.9128989 89.625 124.5390625 C90.67589639 126.37027686 91.7750669 128.13257643 92.96411133 129.87719727 C96.42883913 135.03986112 97.19867702 139.24921877 96.87109375 145.43359375 C95.10629947 153.58980515 91.28083508 159.73303971 84.375 164.5 C79.15304339 167.79807786 74.16542566 168.74154604 68 168 C59.45396525 165.74818767 52.1710569 161.06471529 47.5 153.4375 C44.63222127 146.81460294 44.74488778 138.79014126 46.98828125 132.015625 C48.69672783 128.44005259 50.13588066 125.69880955 53.24609375 123.18359375 C55.37474931 121.0286417 55.37474931 121.0286417 54.83203125 117.63671875 C54.52395592 116.31251756 54.18178452 114.99595257 53.8125 113.6875 C53.53732544 112.64203003 53.53732544 112.64203003 53.2565918 111.57543945 C51.26040033 104.71955961 47.81256415 98.94933728 43.92578125 93.01171875 C40.93000783 88.3266451 40.84584335 84.51898109 40.875 79.125 C40.86919922 78.06345703 40.86919922 78.06345703 40.86328125 76.98046875 C40.87035234 73.18329471 41.1331706 69.69372827 42 66 C42.74103305 60.66145014 42.74103305 60.66145014 40.6484375 55.91796875 C38.84942846 53.84554204 36.94989698 51.9300406 35 50 C34.52175781 49.39414063 34.04351562 48.78828125 33.55078125 48.1640625 C32.11122756 46.40689955 30.95143711 45.17174328 29 44 C26.41718654 43.75482294 23.9858915 43.87586854 21.3984375 44.03515625 C17.6633724 43.98040774 15.74097498 42.41466843 13 40 C9.02782644 35.49104623 7.98995503 33.29492509 7.9375 27.375 C7.63920904 22.68635787 7.63920904 22.68635787 5.15625 18.8515625 C4.4240625 18.24054688 3.691875 17.62953125 2.9375 17 C0.0869144 14.59227323 -0.89050668 13.60753584 -1.5625 9.87890625 C-1.5625 1.5625 -1.5625 1.5625 0 0 Z M19.8125 24.6875 C17.74169387 26.85487916 17.74169387 26.85487916 17.9375 29.625 C18.82379623 32.18336404 18.82379623 32.18336404 21.3125 33.5 C24.00300052 34.26779486 24.00300052 34.26779486 26.3125 32.9375 C28.1950963 31.09948619 28.1950963 31.09948619 28.5 28.5 C28.2202717 25.86912953 28.2202717 25.86912953 26.125 24.1875 C23.11310831 22.50438406 22.57374419 22.55739734 19.8125 24.6875 Z M115.8125 25 C115.214375 25.66 114.61625 26.32 114 27 C114.63921965 29.47627099 114.63921965 29.47627099 116 32 C118.52372901 33.36078035 118.52372901 33.36078035 121 34 C122.62493901 32.87890434 122.62493901 32.87890434 124 31 C124.50010524 27.95769177 124.50010524 27.95769177 124 25 C120.35416993 22.56944662 119.13103163 21.96591394 115.8125 25 Z M77 101 C76.32682685 104.08558753 76.32682685 104.08558753 76.4375 107.5 C76.41558594 108.6446875 76.39367187 109.789375 76.37109375 110.96875 C76.69935361 114.18139119 76.69935361 114.18139119 79.41015625 115.90625 C81.83851702 117.12968355 81.83851702 117.12968355 84 117 C84.10655578 110.55929529 83.96205088 104.37358711 83 98 C80.06797561 98 79.05758699 98.94662076 77 101 Z M59 100 C58.67 105.94 58.34 111.88 58 118 C60.31 118 62.62 118 65 118 C65 112.39 65 106.78 65 101 C62.03 100.505 62.03 100.505 59 100 Z " fill="#F3643C" transform="translate(99,127)"/>
<path d="M0 0 C1.65 0.33 3.3 0.66 5 1 C5 1.66 5 2.32 5 3 C5.804375 3.185625 6.60875 3.37125 7.4375 3.5625 C15.53752232 6.83093006 21.74235539 13.15610739 27 20 C27.68211044 20.79636871 28.36422089 21.59273743 29.06700134 22.41323853 C32.09073336 27.01946103 31.56569124 32.14874037 31.53344727 37.47802734 C31.54637062 39.20107841 31.54637062 39.20107841 31.55955505 40.9589386 C31.58223442 44.75150161 31.5754713 48.54332681 31.56640625 52.3359375 C31.57164138 54.9762087 31.57791745 57.61647801 31.58518982 60.25674438 C31.59702818 65.78972655 31.59135682 71.3224992 31.57641602 76.85546875 C31.55950573 83.23701816 31.57531759 89.61788297 31.6076389 95.99935758 C31.63762525 102.15464009 31.63950469 108.30961091 31.6301403 114.46495438 C31.62932102 117.07639073 31.63618 119.68784136 31.65091133 122.2992363 C31.66836767 125.95438972 31.653802 129.60808818 31.63110352 133.26318359 C31.64279572 134.337733 31.65448792 135.41228241 31.66653442 136.51939392 C31.58122233 143.28566477 30.3892448 147.76470851 26 153 C20.3904912 158.32903336 15.32674387 159.31695875 7.75 159.1875 C7.0178125 159.18685547 6.285625 159.18621094 5.53125 159.18554688 C0.140625 159.140625 0.140625 159.140625 -1 158 C-1.09820663 156.39496155 -1.12631938 154.78559123 -1.12698364 153.17755127 C-1.12980347 152.13266037 -1.13262329 151.08776947 -1.13552856 150.01121521 C-1.13350433 148.85412552 -1.1314801 147.69703583 -1.12939453 146.50488281 C-1.13114685 145.29310867 -1.13289917 144.08133453 -1.13470459 142.83283997 C-1.13836821 139.49012791 -1.13748261 136.14747727 -1.1343255 132.80476856 C-1.13179007 129.28291047 -1.13414422 125.76105498 -1.13571167 122.23919678 C-1.13753659 116.29373711 -1.13512561 110.34828982 -1.13037109 104.40283203 C-1.1249978 97.60681235 -1.12663832 90.81082299 -1.1321975 84.01480412 C-1.13680437 78.14091593 -1.13734091 72.26703665 -1.13475883 66.39314723 C-1.1332278 62.90405331 -1.13291045 59.41497336 -1.13629532 55.92588043 C-1.14867517 37.25796056 -0.77088911 18.65068695 0 0 Z " fill="#F6713A" transform="translate(59,98)"/>
<path d="M0 0 C5.72326909 2.59568338 9.30277273 6.44648417 11.7265625 12.265625 C12.78789591 20.40996242 11.65886733 26.5125688 7.90625 33.7421875 C6.24654393 37.29241968 5.94660125 40.37827369 5.7265625 44.265625 C5.3965625 44.265625 5.0665625 44.265625 4.7265625 44.265625 C4.7265625 41.625625 4.7265625 38.985625 4.7265625 36.265625 C2.12124775 37.28547315 2.12124775 37.28547315 -0.2734375 39.265625 C-0.87901692 42.45937877 -0.87901692 42.45937877 -0.5859375 45.953125 C-0.54082031 47.13261719 -0.49570313 48.31210938 -0.44921875 49.52734375 C-0.39121094 50.43097656 -0.33320313 51.33460938 -0.2734375 52.265625 C1.7065625 53.255625 3.6865625 54.245625 5.7265625 55.265625 C6.0565625 53.945625 6.3865625 52.625625 6.7265625 51.265625 C7.2215625 53.740625 7.2215625 53.740625 7.7265625 56.265625 C8.3865625 56.265625 9.0465625 56.265625 9.7265625 56.265625 C9.819375 56.97074219 9.9121875 57.67585938 10.0078125 58.40234375 C10.86080609 61.80041062 12.34164491 64.13100999 14.2265625 67.078125 C18.13918475 73.65004492 19.40135172 78.06878724 18.1640625 85.703125 C15.956628 94.12623032 11.12501563 99.59291776 3.875 104.171875 C-1.39421848 106.85438623 -7.06008961 107.11231667 -12.734375 105.6171875 C-20.26141449 102.90745328 -26.54004479 98.61569282 -30.7734375 91.703125 C-33.64121623 85.08022794 -33.52854972 77.05576626 -31.28515625 70.28125 C-29.18274646 65.88116016 -26.86458091 62.59075779 -23.2734375 59.265625 C-23.2734375 58.275625 -23.2734375 57.285625 -23.2734375 56.265625 C-22.6134375 56.265625 -21.9534375 56.265625 -21.2734375 56.265625 C-20.9434375 55.605625 -20.6134375 54.945625 -20.2734375 54.265625 C-20.2734375 54.925625 -20.2734375 55.585625 -20.2734375 56.265625 C-19.4896875 56.08 -18.7059375 55.894375 -17.8984375 55.703125 C-15.2734375 55.265625 -15.2734375 55.265625 -13.2734375 56.265625 C-13.6034375 50.985625 -13.9334375 45.705625 -14.2734375 40.265625 C-15.5934375 39.935625 -16.9134375 39.605625 -18.2734375 39.265625 C-19.94140625 36.6484375 -19.94140625 36.6484375 -21.4609375 33.390625 C-21.97011719 32.32070312 -22.47929687 31.25078125 -23.00390625 30.1484375 C-25.82449594 23.74352921 -26.79813635 16.62597872 -24.4375 9.875 C-19.19127351 0.65009167 -10.22463609 -3.30280341 0 0 Z " fill="#3C2823" transform="translate(177.2734375,188.734375)"/>
<path d="M0 0 C3.44652326 2.44128731 4.78056289 3.82966874 5.5625 8 C4.87680019 11.65706566 3.61193986 13.38806014 1 16 C0.34 16 -0.32 16 -1 16 C-0.9278125 16.62003906 -0.855625 17.24007812 -0.78125 17.87890625 C0.55520861 30.63094882 0.0998717 43.25327257 -1 56 C-0.22140625 56.29003906 0.5571875 56.58007812 1.359375 56.87890625 C4.34835391 58.14789582 5.90980759 59.53655895 8 62 C9.676194 67.02858199 9.60642735 71.34030411 7.8125 76.25 C5.18561967 80.23561154 2.53058408 82.48980531 -2 84 C-7.35219303 84.34530278 -10.66997016 84.48807959 -15 81 C-19.01772565 76.53586039 -20.37080778 73.20764067 -20.28125 67.12890625 C-19.77923872 63.32895974 -18.25351796 61.10620043 -16 58 C-15.13955078 57.61835693 -14.27910156 57.23671387 -13.39257812 56.84350586 C-10.56362173 55.09978998 -10.56362173 55.09978998 -10.38476562 51.14282227 C-10.36526555 49.53411917 -10.37428589 47.92490996 -10.40625 46.31640625 C-10.40620972 45.46449203 -10.40616943 44.61257782 -10.40612793 43.73484802 C-10.41148835 41.93342716 -10.42909357 40.13200732 -10.45800781 38.33081055 C-10.49979626 35.57593125 -10.49908336 32.82350154 -10.4921875 30.06835938 C-10.50268248 28.31769137 -10.51562224 26.56703596 -10.53125 24.81640625 C-10.53145142 23.99338516 -10.53165283 23.17036407 -10.53186035 22.32240295 C-10.62344101 17.88592883 -10.84652237 15.37310222 -14 12 C-14.34916753 8.85203646 -13.92223529 6.02447351 -13 3 C-9.46510715 -0.53489285 -4.77677473 -1.02084299 0 0 Z " fill="#F59B3B" transform="translate(176,199)"/>
<path d="M0 0 C-1.57181664 4.32759907 -4.92215871 6.68793967 -8.375 9.5 C-15.32518857 15.2915216 -21.71123442 21.50391248 -28 28 C-26.85979547 31.54223542 -25.64212662 34.94389866 -24.0625 38.3125 C-18.40707041 50.87306086 -18.40707041 50.87306086 -19 57 C-18.01 57.495 -18.01 57.495 -17 58 C-21.79774 62.89769291 -26.60987775 67.73371587 -31.84375 72.16796875 C-33.45361939 73.53577445 -35.03223851 74.94051853 -36.59375 76.36328125 C-42.32792105 81.41289536 -47.11569018 85.14079125 -55 85 C-62.24613765 83.99761762 -66.93753497 80.03487666 -72 75 C-70.1796875 74.35546875 -70.1796875 74.35546875 -68 74 C-66.4968501 75.20905536 -64.99814266 76.42635446 -63.5625 77.71484375 C-60.68786434 80.07923158 -57.77746507 81.06781493 -54.0546875 80.92578125 C-52.01727682 80.68950359 -50.01746478 80.36826738 -48 80 C-46.2675 79.7215625 -46.2675 79.7215625 -44.5 79.4375 C-43.2625 79.2209375 -43.2625 79.2209375 -42 79 C-42 78.01 -42 77.02 -42 76 C-41.34 76 -40.68 76 -40 76 C-42.24593243 65.26082882 -48.1566311 54.55421113 -55 46 C-53.515 45.505 -53.515 45.505 -52 45 C-50.82189647 43.58627577 -49.6479318 42.16879997 -48.5 40.73046875 C-46.29566581 38.18744779 -43.77763008 36.08481672 -41.22265625 33.90234375 C-35.58509482 29.07722527 -30.12504412 24.04473534 -24.68017578 19.00439453 C-19.83127449 14.52348313 -14.90967415 10.14671712 -9.875 5.875 C-9.3183667 5.40143066 -8.7617334 4.92786133 -8.18823242 4.43994141 C-2.91488009 0 -2.91488009 0 0 0 Z " fill="#CB252B" transform="translate(224,71)"/>
<path d="M0 0 C0.66 0.33 1.32 0.66 2 1 C2.61264822 8.22924901 2.61264822 8.22924901 0.0625 11.4375 C-1.4534375 12.7059375 -1.4534375 12.7059375 -3 14 C-4.56987911 15.596946 -6.13187005 17.20167028 -7.6875 18.8125 C-9.08305337 20.25027179 -10.51198102 21.65815185 -12 23 C-12.66 23 -13.32 23 -14 23 C-15.02361309 27.21133553 -15.11489283 31.16189864 -15.09765625 35.48828125 C-15.09553383 36.5430793 -15.09553383 36.5430793 -15.09336853 37.6191864 C-15.08780109 39.85033544 -15.07525475 42.08138164 -15.0625 44.3125 C-15.05748079 45.83137875 -15.05291862 47.35025909 -15.04882812 48.86914062 C-15.03784236 52.57946012 -15.02060034 56.28972001 -15 60 C-14.37552979 60.29253662 -13.75105957 60.58507324 -13.10766602 60.88647461 C-10.52943497 62.24860965 -9.46877597 63.48915668 -8 66 C-7.13879605 70.77153538 -7.29665822 74.79427124 -9.75 79 C-13.10103817 81.97870059 -14.87160806 82.87462312 -19.375 83.375 C-23.75105769 82.92230438 -25.68356181 81.86419662 -29 79 C-31.88901166 74.89946733 -32.47756622 71.73314043 -31.65234375 66.90234375 C-30.56743756 63.7385754 -28.58139656 62.01474854 -26 60 C-25.34 60 -24.68 60 -24 60 C-24.03665771 58.92105469 -24.07331543 57.84210938 -24.11108398 56.73046875 C-24.23852349 52.69784771 -24.31840803 48.66540149 -24.38452148 44.63134766 C-24.41955827 42.89113358 -24.46720509 41.15112312 -24.52807617 39.41162109 C-25.0847812 23.08472583 -25.0847812 23.08472583 -20.75 18.1015625 C-19.53220325 17.02996298 -18.28463561 15.99048766 -17 15 C-16.21753906 14.16210938 -15.43507812 13.32421875 -14.62890625 12.4609375 C-10.0430015 7.83168771 -5.35383239 3.71996528 0 0 Z M-21 67 C-21.66 67.66 -22.32 68.32 -23 69 C-22.67958603 71.60280568 -22.67958603 71.60280568 -22 74 C-20.35 74 -18.7 74 -17 74 C-16.32041397 71.60280568 -16.32041397 71.60280568 -16 69 C-16.66 68.34 -17.32 67.68 -18 67 C-18.99 67 -19.98 67 -21 67 Z " fill="#E2723A" transform="translate(240,161)"/>
<path d="M0 0 C3.71268094 1.54127351 5.98115698 3.80843234 8.75 6.6875 C12.48695366 10.51290227 16.30050238 14.10308293 20.40625 17.52734375 C23.29035866 20.1923167 23.98398859 21.75334928 24.23950195 25.68945312 C24.24731598 27.22003219 24.24634757 28.75067224 24.23828125 30.28125 C24.25369525 31.94401863 24.26999846 33.60677922 24.28710938 35.26953125 C24.3035949 37.88999163 24.31247345 40.50986287 24.30541992 43.13037109 C24.30280663 45.66051028 24.33086318 48.18885062 24.36328125 50.71875 C24.35307449 51.50318481 24.34286774 52.28761963 24.33235168 53.0958252 C24.32164871 55.57023891 24.32164871 55.57023891 25 59 C27.35084324 60.98375106 27.35084324 60.98375106 30 62 C32.12020334 65.07463571 33.04130462 68.39502048 32.9453125 72.125 C32.21676403 76.05024071 31.05051927 77.9422637 28.375 81 C24.29725546 83.41644121 21.61705894 83.98607846 17 83 C13.30694192 81.18831113 11.42634399 79.60513341 9.0625 76.25 C7.72667024 72.16393249 7.60011838 69.08228953 9 65 C11.4375 62 11.4375 62 14 60 C14.66 60 15.32 60 16 60 C15.505 41.685 15.505 41.685 15 23 C13.68 22.34 12.36 21.68 11 21 C8.82819428 19.1714071 6.78812001 17.33998173 4.75 15.375 C4.19570312 14.87871094 3.64140625 14.38242188 3.0703125 13.87109375 C0.77339759 11.64772537 -0.80627108 10.05972613 -1.39257812 6.85253906 C-1.421875 4.6640625 -1.421875 4.6640625 -1 1 C-0.67 0.67 -0.34 0.34 0 0 Z M19 67 C18.34 67.66 17.68 68.32 17 69 C17.32041397 71.60280568 17.32041397 71.60280568 18 74 C18.99 74.33 19.98 74.66 21 75 C21.99 74.34 22.98 73.68 24 73 C23.67 71.02 23.34 69.04 23 67 C21.68 67 20.36 67 19 67 Z " fill="#E6753C" transform="translate(100,161)"/>
<path d="M0 0 C5.72326909 2.59568338 9.30277273 6.44648417 11.7265625 12.265625 C12.78789591 20.40996242 11.65886733 26.5125688 7.90625 33.7421875 C6.24654393 37.29241968 5.94660125 40.37827369 5.7265625 44.265625 C5.3965625 44.265625 5.0665625 44.265625 4.7265625 44.265625 C4.7265625 41.625625 4.7265625 38.985625 4.7265625 36.265625 C2.7465625 37.255625 0.7665625 38.245625 -1.2734375 39.265625 C-3.24691346 35.31867309 -2.85967297 30.55636975 -2.2734375 26.265625 C0.2265625 23.453125 0.2265625 23.453125 2.7265625 21.265625 C3.39720308 17.61435965 3.20854564 16.02876498 1.2265625 12.890625 C-2.22905626 10.64447281 -5.25093754 10.58997071 -9.2734375 11.265625 C-11.49395726 11.91479071 -11.49395726 11.91479071 -13.2734375 13.265625 C-14.08570372 15.30418571 -14.08570372 15.30418571 -14.2109375 17.640625 C-14.30246094 18.41148437 -14.39398438 19.18234375 -14.48828125 19.9765625 C-14.4878309 22.35544462 -14.4878309 22.35544462 -12.77832031 24.00146484 C-10.75071299 27.05208624 -10.93082643 29.14081333 -10.98046875 32.78125 C-10.99013672 34.03164062 -10.99980469 35.28203125 -11.00976562 36.5703125 C-11.03490234 37.87226563 -11.06003906 39.17421875 -11.0859375 40.515625 C-11.09947266 41.83304688 -11.11300781 43.15046875 -11.12695312 44.5078125 C-11.16231199 47.76082821 -11.21166717 51.013021 -11.2734375 54.265625 C-11.6034375 54.265625 -11.9334375 54.265625 -12.2734375 54.265625 C-12.2734375 49.315625 -12.2734375 44.365625 -12.2734375 39.265625 C-14.7484375 39.760625 -14.7484375 39.760625 -17.2734375 40.265625 C-23.13983706 32.97133347 -26.21506513 24.38983908 -25.75 15.02734375 C-24.68765802 8.87098488 -21.57137209 4.89599218 -16.5859375 1.265625 C-11.2251033 -1.71261622 -5.79654694 -1.8724241 0 0 Z " fill="#88372E" transform="translate(177.2734375,188.734375)"/>
<path d="M0 0 C1.02480469 0.04833984 2.04960938 0.09667969 3.10546875 0.14648438 C4.70068359 0.2305957 4.70068359 0.2305957 6.328125 0.31640625 C7.40707031 0.36861328 8.48601562 0.42082031 9.59765625 0.47460938 C12.25811922 0.60410094 14.91818952 0.73905986 17.578125 0.87890625 C17.578125 1.20890625 17.578125 1.53890625 17.578125 1.87890625 C8.998125 1.87890625 0.418125 1.87890625 -8.421875 1.87890625 C-8.421875 11.77890625 -8.421875 21.67890625 -8.421875 31.87890625 C-5.451875 31.87890625 -2.481875 31.87890625 0.578125 31.87890625 C3.28709284 32.29306576 5.90674532 32.74608946 8.578125 33.31640625 C12.94541033 34.20308211 17.25470492 35.02454058 21.703125 35.37890625 C25.6177388 35.88401771 28.19953489 36.88640439 31.578125 38.87890625 C31.578125 39.86890625 31.578125 40.85890625 31.578125 41.87890625 C28.608125 40.88890625 25.638125 39.89890625 22.578125 38.87890625 C22.74078354 40.0910228 22.90344208 41.30313934 23.07102966 42.55198669 C23.75319883 48.73651623 23.71009912 54.89402511 23.69165039 61.10961914 C23.69179642 62.40815826 23.69194244 63.70669739 23.6920929 65.04458618 C23.69237797 68.57907858 23.68652833 72.11353654 23.67951894 75.64802098 C23.67323692 79.35156276 23.67267778 83.05510545 23.67149353 86.75865173 C23.66839445 93.7600963 23.66020035 100.76152511 23.65014404 107.76296276 C23.63893857 115.73883374 23.63346131 123.7147055 23.62844861 131.69058239 C23.61801645 148.08669954 23.60044474 164.48280088 23.578125 180.87890625 C23.248125 180.87890625 22.918125 180.87890625 22.578125 180.87890625 C22.5812674 180.30244228 22.58440981 179.72597832 22.58764744 179.13204575 C22.66125313 165.05766708 22.68466204 150.98393742 22.65328312 136.9093895 C22.63929839 130.10271153 22.64184724 123.29681355 22.68432617 116.49023438 C22.72531223 109.91522619 22.71889057 103.34123167 22.68420219 96.76618195 C22.67862507 94.26410731 22.68864569 91.76194533 22.71489143 89.26000214 C23.26235162 71.66951396 23.26235162 71.66951396 14.90501404 56.97662354 C14.13714066 56.28437683 13.36926727 55.59213013 12.578125 54.87890625 C11.85121964 54.15660828 11.12431427 53.4343103 10.37538147 52.69012451 C6.25176569 48.67413192 1.80885965 46.21405565 -3.421875 43.87890625 C-3.421875 43.21890625 -3.421875 42.55890625 -3.421875 41.87890625 C-5.071875 41.54890625 -6.721875 41.21890625 -8.421875 40.87890625 C-8.421875 50.44890625 -8.421875 60.01890625 -8.421875 69.87890625 C-8.751875 69.87890625 -9.081875 69.87890625 -9.421875 69.87890625 C-9.56685203 63.21188599 -9.70892125 56.54480796 -9.84912109 49.87768555 C-9.89697958 47.61725515 -9.94546462 45.35683792 -9.99462891 43.09643555 C-10.46454032 21.4565355 -10.46454032 21.4565355 -10.515625 10.96875 C-10.52271484 9.65640381 -10.52980469 8.34405762 -10.53710938 6.99194336 C-10.421875 3.87890625 -10.421875 3.87890625 -9.421875 0.87890625 C-6.3071902 -0.37711466 -3.31147237 -0.16557362 0 0 Z " fill="#C9322E" transform="translate(67.421875,57.12109375)"/>
<path d="M0 0 C-1.57181664 4.32759907 -4.92215871 6.68793967 -8.375 9.5 C-15.32518857 15.2915216 -21.71123442 21.50391248 -28 28 C-26.85979547 31.54223542 -25.64212662 34.94389866 -24.0625 38.3125 C-18.40707041 50.87306086 -18.40707041 50.87306086 -19 57 C-18.34 57.33 -17.68 57.66 -17 58 C-19.55578827 61.12374122 -22.23784729 61.77154197 -26 63 C-27.35703919 63.96758587 -28.69525938 64.96297074 -30 66 C-30.14695313 64.99582031 -30.29390625 63.99164063 -30.4453125 62.95703125 C-31.8118471 54.39278324 -33.79392358 47.32905818 -37.79296875 39.57421875 C-39 37 -39 37 -39 34 C-36.6875 32.4375 -36.6875 32.4375 -34 31 C-30.89567846 28.93045231 -30.60550786 28.5229439 -29.3125 25.3125 C-27.32523901 21.14300146 -24.8292923 18.74597437 -21.27734375 15.85546875 C-18.73837036 13.78683691 -16.34646915 11.59330493 -13.9375 9.375 C-3.53685897 0 -3.53685897 0 0 0 Z " fill="#E23232" transform="translate(224,71)"/>
<path d="M0 0 C1.53206608 3.06413215 1.13696186 6.26827645 1.12698364 9.63000488 C1.12854363 10.42659531 1.13010362 11.22318574 1.13171089 12.04391527 C1.13571706 14.72786307 1.13253271 17.41175485 1.12939453 20.09570312 C1.13074874 22.01391127 1.13252878 23.93211915 1.13470459 25.85032654 C1.13927658 31.07125672 1.13749032 36.29216722 1.1343255 41.51309776 C1.1318007 46.9667809 1.13413978 52.42046231 1.13571167 57.87414551 C1.13753301 67.0341014 1.13512798 76.19404924 1.13037109 85.35400391 C1.12492854 95.95699538 1.12669122 106.55996762 1.1321975 117.16295862 C1.13672963 126.25255323 1.13737868 135.34214205 1.13475883 144.43173742 C1.13319661 149.86664997 1.13300079 155.30155348 1.13629532 160.73646545 C1.13917548 165.84501614 1.13719564 170.95354194 1.13140106 176.06208992 C1.13007425 177.94149293 1.13046626 179.82089802 1.13266373 181.70030022 C1.13537829 184.25689385 1.1319903 186.8134067 1.12698364 189.36999512 C1.12921436 190.12154011 1.13144509 190.87308511 1.13374341 191.64740419 C1.11415007 196.77169986 1.11415007 196.77169986 0 199 C-2.37531394 199.0543965 -4.74935883 199.09385864 -7.125 199.125 C-7.79015625 199.14175781 -8.4553125 199.15851563 -9.140625 199.17578125 C-13.48371323 199.21836055 -17.05320185 198.86213919 -21 197 C-22.375 194.875 -22.375 194.875 -23 193 C-21.783125 193.309375 -20.56625 193.61875 -19.3125 193.9375 C-13.28902773 195.14219445 -7.12466694 195.52887177 -1 196 C-1 131.98 -1 67.96 -1 2 C-3.64 2.33 -6.28 2.66 -9 3 C-10.43809545 2.99511682 -11.87683006 2.95863126 -13.3125 2.875 C-26.47876266 2.8146043 -38.8930975 5.83503389 -51.03295898 10.75024414 C-53.00414565 11.54584231 -55.00031773 12.27901169 -57 13 C-57.66 12.67 -58.32 12.34 -59 12 C-44.34768184 4.34661794 -32.03928854 0.16853755 -15.375 -0.625 C-14.446875 -0.6765625 -13.51875 -0.728125 -12.5625 -0.78125 C-11.66273438 -0.82507812 -10.76296875 -0.86890625 -9.8359375 -0.9140625 C-8.62236572 -0.9752124 -8.62236572 -0.9752124 -7.38427734 -1.03759766 C-4.78139501 -0.99655282 -2.50839511 -0.69957617 0 0 Z " fill="#D46C31" transform="translate(283,58)"/>
<path d="M0 0 C3.39519622 1.6072672 6.27623929 3.26313733 8.69140625 6.1953125 C8.69140625 7.1853125 8.69140625 8.1753125 8.69140625 9.1953125 C6.15846826 8.72624991 4.70955546 8.2090619 2.62890625 6.6328125 C-1.94400427 4.39500522 -6.31809779 4.42535027 -11.30859375 5.1953125 C-14.33999675 6.53082571 -15.85120524 7.84476697 -18.30859375 10.1953125 C-19.52262406 13.47319435 -19.50699694 16.78792711 -19.55859375 20.2578125 C-19.584375 21.30066406 -19.61015625 22.34351563 -19.63671875 23.41796875 C-19.26496351 26.56461135 -18.65289449 27.2149953 -16.30859375 29.1953125 C-16.30859375 29.8553125 -16.30859375 30.5153125 -16.30859375 31.1953125 C-14.98859375 31.5253125 -13.66859375 31.8553125 -12.30859375 32.1953125 C-12.63859375 34.5053125 -12.96859375 36.8153125 -13.30859375 39.1953125 C-15.28859375 39.6903125 -15.28859375 39.6903125 -17.30859375 40.1953125 C-23.17499331 32.90102097 -26.25022138 24.31952658 -25.78515625 14.95703125 C-24.72281427 8.80067238 -21.60652834 4.82567968 -16.62109375 1.1953125 C-11.26709938 -1.77912882 -5.76292328 -2.00873468 0 0 Z " fill="#5F2B27" transform="translate(177.30859375,188.8046875)"/>
<path d="M0 0 C0.33 50.16 0.66 100.32 1 152 C-1.78163573 149.21836427 -1.94804185 147.15085863 -2.12304783 143.27452469 C-2.12166514 141.69825869 -2.12166514 141.69825869 -2.12025452 140.09014893 C-2.12162918 138.88142624 -2.12300385 137.67270355 -2.12442017 136.42735291 C-2.12088129 135.09121679 -2.11724649 133.75508093 -2.11352539 132.41894531 C-2.11324326 131.00950625 -2.11340175 129.60006703 -2.1139679 128.19062805 C-2.11425488 124.36659383 -2.10837413 120.54259096 -2.10139394 116.71856403 C-2.09514394 112.72137422 -2.0945553 108.72418369 -2.09336853 104.72698975 C-2.09026008 97.15872381 -2.08205322 89.59047232 -2.07201904 82.02221274 C-2.06084283 73.40559909 -2.05534365 64.78898476 -2.05032361 56.17236567 C-2.03987022 38.44823559 -2.02228017 20.72411896 -2 3 C-3.98 3.66 -5.96 4.32 -8 5 C-7.6875 3.0625 -7.6875 3.0625 -7 1 C-4 0 -4 0 0 0 Z " fill="#653018" transform="translate(252,93)"/>
<path d="M0 0 C1.89679321 3.79358642 1.75493638 7.8897908 1 12 C-0.95534895 15.101941 -3.31461545 17.52118349 -6 20 C-8.20422474 21.75539447 -8.20422474 21.75539447 -8.08984375 23.91796875 C-8.03957031 24.66691406 -7.98929688 25.41585937 -7.9375 26.1875 C-7.82288191 30.91740641 -8.75162225 33.84914877 -11 38 C-11.99 38.495 -11.99 38.495 -13 39 C-13.33 38.01 -13.66 37.02 -14 36 C-13.34 36 -12.68 36 -12 36 C-12.13921875 34.515 -12.13921875 34.515 -12.28125 33 C-12.96341374 22.49361459 -12.96341374 22.49361459 -10.25390625 18.29296875 C-8.25495983 16.37241239 -6.19643675 14.68563751 -4 13 C-2.64560332 10.29120665 -2.93498549 7.99066732 -3 5 C-3.68707031 5.69867188 -4.37414062 6.39734375 -5.08203125 7.1171875 C-5.98308594 8.02726563 -6.88414062 8.93734375 -7.8125 9.875 C-8.70582031 10.77992188 -9.59914062 11.68484375 -10.51953125 12.6171875 C-15.03205437 16.95205223 -15.03205437 16.95205223 -18.5234375 17.125 C-20.41928084 17.04189454 -22.31511425 16.95856246 -24.2109375 16.875 C-27.27782729 17.01245164 -29.28577428 17.57960208 -32 19 C-34.74265215 23.44498797 -35.06307176 26.10441679 -34.5625 31.25 C-34.37621889 36.63724961 -36.10214394 39.0566294 -39.625 43.0625 C-43.20128682 46.80525062 -45.97538396 48.69595742 -51 50 C-50.125 48.97916667 -49.25 47.95833333 -48.375 46.9375 C-47.56289062 45.97070312 -47.56289062 45.97070312 -46.734375 44.984375 C-45 43 -45 43 -43.265625 41.328125 C-39.95457386 38.02156135 -39.95457386 38.02156135 -38.765625 33.6171875 C-38.83873449 31.90955875 -38.924745 30.20243508 -39.0234375 28.49609375 C-38.98415996 24.31303532 -37.6282937 21.22225838 -35 18 C-32.50869775 15.96792397 -30.12384441 14.77011442 -27 14 C-25.45443349 14.17709616 -23.91241383 14.38730773 -22.375 14.625 C-19.36399485 14.8216753 -17.64392911 14.49511073 -15.23583984 12.64355469 C-11.40115843 9.08469949 -7.88738053 5.24068789 -4.46704102 1.28515625 C-3 0 -3 0 0 0 Z " fill="#BD3533" transform="translate(242,127)"/>
<path d="M0 0 C16.11387522 -0.35200213 16.11387522 -0.35200213 24 2 C25.5391745 2.17013328 27.08130207 2.31502479 28.625 2.4375 C32.6027723 2.80976985 35.52848789 3.95269799 39 6 C39 6.99 39 7.98 39 9 C36.03 8.01 33.06 7.02 30 6 C30.2475 7.8871875 30.2475 7.8871875 30.5 9.8125 C31.11073012 15.2144509 31.09133564 20.57060338 31 26 C30.67 26 30.34 26 30 26 C30.09023437 25.38253906 30.18046875 24.76507813 30.2734375 24.12890625 C30.39761005 20.99116145 30.14924541 18.94288915 29 16 C20.94109527 8.54551313 10.19433797 4.64083499 0 1 C0 0.67 0 0.34 0 0 Z " fill="#B71B28" transform="translate(60,90)"/>
<path d="M0 0 C1.4278535 2.85570699 1.11941486 5.27714356 1.11352539 8.46923828 C1.11367142 9.13277313 1.11381744 9.79630798 1.1139679 10.47994995 C1.11327031 12.67677053 1.10548514 14.8735067 1.09765625 17.0703125 C1.09579152 18.59203037 1.09436788 20.11374884 1.09336853 21.63546753 C1.08954767 25.64351047 1.07972104 29.65151726 1.06866455 33.6595459 C1.05844118 37.74828604 1.05386892 41.83703201 1.04882812 45.92578125 C1.0380984 53.95053744 1.02102713 61.97526422 1 70 C0.67 70 0.34 70 0 70 C-0.33 47.56 -0.66 25.12 -1 2 C-3.64 2.33 -6.28 2.66 -9 3 C-10.43809545 2.99511682 -11.87683006 2.95863126 -13.3125 2.875 C-26.47876266 2.8146043 -38.8930975 5.83503389 -51.03295898 10.75024414 C-53.00414565 11.54584231 -55.00031773 12.27901169 -57 13 C-57.66 12.67 -58.32 12.34 -59 12 C-44.34768184 4.34661794 -32.03928854 0.16853755 -15.375 -0.625 C-14.446875 -0.6765625 -13.51875 -0.728125 -12.5625 -0.78125 C-11.66273438 -0.82507812 -10.76296875 -0.86890625 -9.8359375 -0.9140625 C-8.62236572 -0.9752124 -8.62236572 -0.9752124 -7.38427734 -1.03759766 C-4.78139501 -0.99655282 -2.50839511 -0.69957617 0 0 Z " fill="#C52F30" transform="translate(283,58)"/>
<path d="M0 0 C3.11116179 1.71239349 5.38689318 3.77378636 7 7 C7.53186194 10.753253 7.68922784 14.2630928 7 18 C4.85711821 20.51788611 2.99712337 21.44791825 0 23 C-0.65234375 21.1484375 -0.65234375 21.1484375 -1 19 C-0.195625 18.21625 0.60875 17.4325 1.4375 16.625 C4.25205927 14.22998712 4.25205927 14.22998712 4.5625 10.9375 C4.1781341 7.9616416 4.1781341 7.9616416 2.5 5.625 C-0.95561876 3.37884781 -3.97750004 3.32434571 -8 4 C-10.22051976 4.64916571 -10.22051976 4.64916571 -12 6 C-13.0410804 8.94688331 -13.16666201 11.88897574 -13 15 C-11.68864588 17.36290685 -11.68864588 17.36290685 -10 19 C-10 19.99 -10 20.98 -10 22 C-12.89680918 20.70143037 -15.0096376 19.49488323 -17 17 C-17.96603799 12.54082466 -18.1590726 7.95407752 -15.78125 3.9453125 C-11.25387675 -0.51799414 -6.11721527 -1.37838568 0 0 Z " fill="#BB3E36" transform="translate(176,196)"/>
<path d="M0 0 C0.33 0 0.66 0 1 0 C1.96530384 28.67157776 2.11969445 57.31384356 2 86 C4.06277107 85.85805236 6.12521031 85.71127784 8.1875 85.5625 C9.33605469 85.48128906 10.48460938 85.40007812 11.66796875 85.31640625 C14.51598171 85.04596188 17.21210482 84.62478253 20 84 C19.67 84.99 19.34 85.98 19 87 C12.73 87 6.46 87 0 87 C0 58.29 0 29.58 0 0 Z " fill="#F9964B" transform="translate(59,168)"/>
<path d="M0 0 C0.66 0.33 1.32 0.66 2 1 C1.5875 1.845625 1.175 2.69125 0.75 3.5625 C-0.40311835 7.03352717 -0.40311835 7.03352717 1.625 9.9375 C2.00398437 10.51113281 2.38296875 11.08476563 2.7734375 11.67578125 C4.44845892 14.8497868 5.34046442 18.17367445 6.25 21.625 C6.58515625 22.89601562 6.9203125 24.16703125 7.265625 25.4765625 C7.88905086 28.4676802 8.16268589 30.96707015 8 34 C4.52465762 29.82311335 2.45140073 24.97923275 0.13671875 20.10742188 C-2.17236197 15.35898157 -4.82937847 11.22565412 -8 7 C-7.01 6.67 -6.02 6.34 -5 6 C-3.57142881 4.59894424 -3.57142881 4.59894424 -2.3125 2.9375 C-1.1678125 1.4834375 -1.1678125 1.4834375 0 0 Z " fill="#A41C20" transform="translate(177,110)"/>
<path d="M0 0 C3.4375 0.8125 3.4375 0.8125 5.4375 3.8125 C5.25 7.375 5.25 7.375 4.4375 10.8125 C1.4375 12.8125 1.4375 12.8125 -2.125 12.625 C-5.5625 11.8125 -5.5625 11.8125 -7.5625 8.8125 C-7.375 5.25 -7.375 5.25 -6.5625 1.8125 C-3.5625 -0.1875 -3.5625 -0.1875 0 0 Z " fill="#703226" transform="translate(171.5625,262.1875)"/>
<path d="M0 0 C3.44652326 2.44128731 4.78056289 3.82966874 5.5625 8 C4.87680019 11.65706566 3.61193986 13.38806014 1 16 C0.34 16 -0.32 16 -1 16 C-0.97679687 15.22914063 -0.95359375 14.45828125 -0.9296875 13.6640625 C-0.91164062 12.66117188 -0.89359375 11.65828125 -0.875 10.625 C-0.85179687 9.62726563 -0.82859375 8.62953125 -0.8046875 7.6015625 C-0.72783152 4.83737827 -0.72783152 4.83737827 -3 3 C-5.5 2.66666667 -5.5 2.66666667 -8 3 C-10.27216848 4.83737827 -10.27216848 4.83737827 -10.1953125 7.6015625 C-10.17210937 8.59929687 -10.14890625 9.59703125 -10.125 10.625 C-10.10695312 11.62789062 -10.08890625 12.63078125 -10.0703125 13.6640625 C-10.04710937 14.43492187 -10.02390625 15.20578125 -10 16 C-12.0625 14.5625 -12.0625 14.5625 -14 12 C-14.32218823 8.81263789 -13.98093719 6.04667551 -13 3 C-9.46510715 -0.53489285 -4.77677473 -1.02084299 0 0 Z " fill="#F47C46" transform="translate(176,199)"/>
<path d="M0 0 C3.60822687 3.11619594 4.85894343 6.36125451 5.265625 11.0859375 C5.23707122 17.0965084 5.10550138 22.34146504 3 28 C2.34 28 1.68 28 1 28 C0.67386719 26.99839844 0.34773437 25.99679688 0.01171875 24.96484375 C-0.42952315 23.6223418 -0.87093871 22.27989693 -1.3125 20.9375 C-1.52583984 20.28072266 -1.73917969 19.62394531 -1.95898438 18.94726562 C-3.068141 15.58668661 -4.26274594 12.35087942 -5.73046875 9.12890625 C-6.14941406 8.09636719 -6.56835938 7.06382812 -7 6 C-6.67 5.34 -6.34 4.68 -6 4 C-5.01941648 5.45738102 -4.04057868 6.91593675 -3.0625 8.375 C-2.51722656 9.18710938 -1.97195312 9.99921875 -1.41015625 10.8359375 C0 13 0 13 1 15 C1.02715383 13.25008666 1.04646551 11.50005055 1.0625 9.75 C1.07410156 8.77546875 1.08570313 7.8009375 1.09765625 6.796875 C1.01195577 4.34241322 0.70706066 2.33831086 0 0 Z " fill="#E58E42" transform="translate(153,217)"/>
<path d="M0 0 C3.32537544 0.12119819 4.26795837 1.2739307 6.62890625 3.6875 C7.10166992 4.22149414 7.57443359 4.75548828 8.06152344 5.30566406 C13.90954877 11.935493 13.90954877 11.935493 22.25 14.25 C24.88942729 14.24443499 24.88942729 14.24443499 27 14 C27 14.33 27 14.66 27 15 C25.10489301 15.08160748 23.20875496 15.13946459 21.3125 15.1875 C19.72888672 15.23970703 19.72888672 15.23970703 18.11328125 15.29296875 C12.7962002 14.79261608 9.55057329 11.78271838 5.6875 8.3125 C4.64142578 7.37857422 4.64142578 7.37857422 3.57421875 6.42578125 C3.05472656 5.95527344 2.53523438 5.48476562 2 5 C3.10669052 10.02267234 4.28444808 13.60339213 7 18 C6.67 18.66 6.34 19.32 6 20 C2.09473434 17.17067488 -0.70813524 14.81047357 -1.5 9.8984375 C-1.5 1.5 -1.5 1.5 0 0 Z " fill="#962928" transform="translate(99,127)"/>
<path d="M0 0 C3.89878432 2.1329051 6.73857869 4.55193001 9.8125 7.75 C12.78856308 10.79200244 15.76048487 13.74016967 19 16.5 C25.55043112 22.11845921 31.70673487 28.17702981 37 35 C36.505 35.99 36.505 35.99 36 37 C35.46632812 36.46109131 34.93265625 35.92218262 34.3828125 35.36694336 C31.92460574 32.88773764 29.46233634 30.41260401 27 27.9375 C26.16082031 27.08994141 25.32164062 26.24238281 24.45703125 25.36914062 C19.99553935 20.89035613 15.47245937 16.5711869 10.67480469 12.4543457 C8.72913829 10.76479254 6.91221975 8.98063008 5.125 7.125 C2.81308065 4.72480848 2.81308065 4.72480848 0 3 C0 2.01 0 1.02 0 0 Z " fill="#D1413B" transform="translate(136,86)"/>
<path d="M0 0 C0.66 0.33 1.32 0.66 2 1 C2.61302682 8.23371648 2.61302682 8.23371648 0 11.5 C-0.99 12.325 -1.98 13.15 -3 14 C-4.44816746 15.42675278 -5.88517661 16.86489493 -7.3125 18.3125 C-8.54166667 19.54166667 -9.77083333 20.77083333 -11 22 C-11.33 20.68 -11.66 19.36 -12 18 C-11.01 18 -10.02 18 -9 18 C-8.9175 17.4225 -8.835 16.845 -8.75 16.25 C-7.78202213 13.3460664 -6.31305716 11.96259396 -4 10 C-3.34 10 -2.68 10 -2 10 C-2 8.68 -2 7.36 -2 6 C-2.67095703 6.63228516 -2.67095703 6.63228516 -3.35546875 7.27734375 C-9.3602812 12.71880492 -9.3602812 12.71880492 -14 13 C-9.89962427 7.75027653 -5.47035213 3.79037089 0 0 Z " fill="#A7422E" transform="translate(240,161)"/>
<path d="M0 0 C2.09916438 1.69719673 2.92469316 2.62848625 3.46875 5.3125 C3.54629061 11.98099212 2.19148105 16.48475759 -0.8203125 22.40625 C-2.45147492 25.99264683 -2.77868758 29.09014719 -3 33 C-3.33 33 -3.66 33 -4 33 C-4 30.36 -4 27.72 -4 25 C-5.65 25.66 -7.3 26.32 -9 27 C-10 24 -10 24 -9 21 C-8.030625 20.566875 -7.06125 20.13375 -6.0625 19.6875 C-2.87218114 18.29044239 -2.87218114 18.29044239 -1.6875 15.5625 C-0.69242839 10.40621985 -0.32200419 5.23680502 0 0 Z " fill="#5A2B29" transform="translate(186,200)"/>
<path d="M0 0 C4.48040441 0.51204622 6.5455625 2.21959908 10 5 C15.01286226 7.33933572 18.74741366 6.95880544 24 6 C25.155 5.814375 26.31 5.62875 27.5 5.4375 C28.325 5.293125 29.15 5.14875 30 5 C30 4.01 30 3.02 30 2 C30.99 1.67 31.98 1.34 33 1 C32.44274048 4.30828754 31.65681537 5.72389414 28.9375 7.6875 C24.29848546 10.73923462 20.24193163 11.54600954 14.7734375 10.625 C8.67230375 8.94771237 4.30623094 5.57610372 0 1 C0 0.67 0 0.34 0 0 Z " fill="#AD4E37" transform="translate(152,145)"/>
<path d="M0 0 C0.33 0 0.66 0 1 0 C1 11.55 1 23.1 1 35 C-14 35 -14 35 -20 33 C-21.375 30.875 -21.375 30.875 -22 29 C-20.783125 29.309375 -19.56625 29.61875 -18.3125 29.9375 C-12.28902773 31.14219445 -6.12466694 31.52887177 0 32 C0 21.44 0 10.88 0 0 Z " fill="#C78037" transform="translate(282,222)"/>
<path d="M0 0 C2.5625 0.3125 2.5625 0.3125 4.375 1.375 C6.18873389 4.33425003 5.81318132 6.92830225 5.5625 10.3125 C4.5625 11.3125 4.5625 11.3125 1.125 11.5 C-2.4375 11.3125 -2.4375 11.3125 -4.4375 9.3125 C-4.6875 5.8125 -4.6875 5.8125 -4.4375 2.3125 C-2.4375 0.3125 -2.4375 0.3125 0 0 Z " fill="#FBEAB3" transform="translate(170.4375,200.6875)"/>
<path d="M0 0 C3.95677402 1.67401978 6.84464213 4.13149285 10 7 C10 7.66 10 8.32 10 9 C10.66 9 11.32 9 12 9 C14.75488012 11.52202074 14.99942397 12.99129675 15.2487793 16.75878906 C15.20654436 18.26160078 15.14737515 19.76400089 15.07421875 21.265625 C15.04777786 22.05902283 15.02133698 22.85242065 14.99409485 23.66986084 C14.90650796 26.19735476 14.79730067 28.72338322 14.6875 31.25 C14.62422268 32.96609376 14.56235725 34.6822402 14.50195312 36.3984375 C14.35099601 40.59974472 14.1806474 44.79986889 14 49 C13.67 49 13.34 49 13 49 C12.67 37.12 12.34 25.24 12 13 C10.68 12.34 9.36 11.68 8 11 C6.37140707 9.50622437 4.78983024 7.96011936 3.25 6.375 C2.45078125 5.55773437 1.6515625 4.74046875 0.828125 3.8984375 C0.22484375 3.27195313 -0.3784375 2.64546875 -1 2 C-0.67 1.34 -0.34 0.68 0 0 Z " fill="#5F291B" transform="translate(103,171)"/>
<path d="M0 0 C2.475 0.495 2.475 0.495 5 1 C4.01 1.33 3.02 1.66 2 2 C2 21.47 2 40.94 2 61 C1.67 61 1.34 61 1 61 C0.24607545 40.65406283 -0.14998543 20.36109946 0 0 Z " fill="#F05A43" transform="translate(59,98)"/>
<path d="M0 0 C2.37662822 0.0876873 4.74983127 0.19463114 7.125 0.3125 C7.79015625 0.33505859 8.4553125 0.35761719 9.140625 0.38085938 C13.75917371 0.62989877 17.01375105 1.68400178 21 4 C21 4.99 21 5.98 21 7 C18.03 6.01 15.06 5.02 12 4 C12.165 5.258125 12.33 6.51625 12.5 7.8125 C13.11073012 13.2144509 13.09133564 18.57060338 13 24 C12.67 24 12.34 24 12 24 C11.93941406 23.28972656 11.87882812 22.57945313 11.81640625 21.84765625 C11.73261719 20.92855469 11.64882812 20.00945312 11.5625 19.0625 C11.48128906 18.14597656 11.40007812 17.22945312 11.31640625 16.28515625 C11.23955024 14.03840268 11.23955024 14.03840268 10 13 C9.95875 11.72125 9.9175 10.4425 9.875 9.125 C9.724593 6.94691622 9.724593 6.94691622 9 5 C5.63818694 3.02336086 5.63818694 3.02336086 2 2 C1.34 1.34 0.68 0.68 0 0 Z " fill="#A11C23" transform="translate(78,92)"/>
<path d="M0 0 C1.38655071 5.10772098 2.16633823 9.76833255 1 15 C-3.14450346 21.34902657 -7.53957048 26.06378882 -15 28 C-14.125 26.97916667 -13.25 25.95833333 -12.375 24.9375 C-11.56289062 23.97070312 -11.56289062 23.97070312 -10.734375 22.984375 C-9 21 -9 21 -7.265625 19.328125 C-4.71603318 16.77853318 -3.14544708 15.09503261 -2.66015625 11.44140625 C-2.6778059 9.70417661 -2.74956541 7.96627202 -2.88671875 6.234375 C-3 4 -3 4 -2 1 C-1.34 0.67 -0.68 0.34 0 0 Z " fill="#BB4334" transform="translate(206,149)"/>
<path d="M0 0 C2.31 0.33 4.62 0.66 7 1 C7.66 2.98 8.32 4.96 9 7 C8.34 7.66 7.68 8.32 7 9 C6.39390377 11.02912522 6.39390377 11.02912522 6 13.3125 C4.14983675 22.23344216 4.14983675 22.23344216 0 25 C-0.99 25 -1.98 25 -3 25 C-3 27.31 -3 29.62 -3 32 C-5 30 -5 30 -5.5625 26.6875 C-5 23 -5 23 -3.50390625 21.5703125 C-1.625 20.3125 -1.625 20.3125 0.2734375 19.23828125 C2.4357403 17.68748943 3.07486276 16.48630634 4 14 C4.45064632 11.41467299 4.45064632 11.41467299 4.625 8.75 C4.69976562 7.85796875 4.77453125 6.9659375 4.8515625 6.046875 C4.90054688 5.37140625 4.94953125 4.6959375 5 4 C4.360625 3.71125 3.72125 3.4225 3.0625 3.125 C1 2 1 2 0 0 Z " fill="#692F2D" transform="translate(180,196)"/>
<path d="M0 0 C-1.6039342 4.45065185 -5.03592252 6.88530677 -8.5625 9.8125 C-9.19003174 10.33932373 -9.81756348 10.86614746 -10.46411133 11.40893555 C-11.72129316 12.46000084 -12.98158177 13.50736251 -14.24511719 14.55078125 C-15.77772579 15.81644133 -17.29993059 17.09467839 -18.8203125 18.375 C-19.60148438 19.014375 -20.38265625 19.65375 -21.1875 20.3125 C-21.86167969 20.86550781 -22.53585938 21.41851562 -23.23046875 21.98828125 C-23.81441406 22.32214844 -24.39835938 22.65601562 -25 23 C-25.99 22.67 -26.98 22.34 -28 22 C-22.24116388 16.74539377 -16.40887545 11.5848434 -10.5 6.5 C-9.88882324 5.97180664 -9.27764648 5.44361328 -8.64794922 4.89941406 C-2.93303425 0 -2.93303425 0 0 0 Z " fill="#AF302F" transform="translate(224,71)"/>
<path d="M0 0 C1.11503906 -0.00257813 2.23007813 -0.00515625 3.37890625 -0.0078125 C5.96320489 0.10440481 7.96614451 0.47786155 10.4375 1.125 C12.01961573 1.19048492 13.60420081 1.21078381 15.1875 1.1875 C16.38632813 1.17396484 16.38632813 1.17396484 17.609375 1.16015625 C18.51429688 1.14275391 18.51429688 1.14275391 19.4375 1.125 C19.4375 1.785 19.4375 2.445 19.4375 3.125 C17.50075815 3.32017554 15.56305991 3.50587873 13.625 3.6875 C12.54605469 3.79191406 11.46710938 3.89632812 10.35546875 4.00390625 C7.4375 4.125 7.4375 4.125 4.4375 3.125 C2.51843083 3.04233514 0.59660526 3.01759337 -1.32421875 3.02734375 C-3.00161133 3.03217773 -3.00161133 3.03217773 -4.71289062 3.03710938 C-5.88013672 3.04548828 -7.04738281 3.05386719 -8.25 3.0625 C-9.42884766 3.06701172 -10.60769531 3.07152344 -11.82226562 3.07617188 C-14.73572789 3.08796727 -17.64908863 3.1044273 -20.5625 3.125 C-20.8925 2.465 -21.2225 1.805 -21.5625 1.125 C-20.56669922 1.14240234 -20.56669922 1.14240234 -19.55078125 1.16015625 C-18.66777344 1.16917969 -17.78476563 1.17820313 -16.875 1.1875 C-16.00488281 1.19910156 -15.13476562 1.21070313 -14.23828125 1.22265625 C-11.58792989 1.19952449 -11.58792989 1.19952449 -9.140625 0.62890625 C-6.05080916 0.0249877 -3.1468042 -0.00729271 0 0 Z " fill="#CB633F" transform="translate(170.5625,176.875)"/>
<path d="M0 0 C0.33 0 0.66 0 1 0 C1 16.5 1 33 1 50 C-1 48 -1 48 -1.24723816 45.98191833 C-1.24510063 44.74067955 -1.24510063 44.74067955 -1.24291992 43.47436523 C-1.24599655 42.53676865 -1.24907318 41.59917206 -1.25224304 40.63316345 C-1.24505753 39.61855545 -1.23787201 38.60394745 -1.23046875 37.55859375 C-1.23001053 36.52058121 -1.22955231 35.48256866 -1.2290802 34.4131012 C-1.22605583 32.21655129 -1.21816405 30.02000357 -1.20581055 27.82348633 C-1.1875568 24.44800278 -1.18530079 21.07279336 -1.18554688 17.69726562 C-1.18063177 15.56770594 -1.17480349 13.43814813 -1.16796875 11.30859375 C-1.16685593 10.29196152 -1.1657431 9.27532928 -1.16459656 8.22789001 C-1.15821671 7.29344559 -1.15183685 6.35900116 -1.14526367 5.39624023 C-1.14145187 4.5695433 -1.13764008 3.74284637 -1.13371277 2.89109802 C-1 1 -1 1 0 0 Z " fill="#A6A5A4" transform="translate(341,138)"/>
<path d="M0 0 C2 0 2 0 4.125 2 C5.08431918 2.9990543 6.04250303 3.99919915 7 5 C8.33063702 6.33602421 9.66414857 7.66918952 11 9 C14 12 17 15 20 18 C19.67 18.99 19.34 19.98 19 21 C18.5875 20.57589844 18.175 20.15179688 17.75 19.71484375 C14.53774322 16.45239546 11.27296183 13.31199975 7.8125 10.3125 C1.77952329 5.07611051 1.77952329 5.07611051 0 3 C0 2.01 0 1.02 0 0 Z " fill="#B54637" transform="translate(132,124)"/>
<path d="M0 0 C-0.71027344 0.58265625 -1.42054688 1.1653125 -2.15234375 1.765625 C-7.32835821 6.38265894 -10.60823095 9.49189279 -11.125 16.625 C-11.12951422 18.41714541 -11.10451791 20.21089923 -11 22 C-11.33 22 -11.66 22 -12 22 C-12 6 -12 6 -10.79296875 4.4296875 C-9.99826172 3.66011719 -9.99826172 3.66011719 -9.1875 2.875 C-8.66542969 2.35679687 -8.14335937 1.83859375 -7.60546875 1.3046875 C-4.78955737 -0.9836687 -3.42967186 -1.14322395 0 0 Z " fill="#E55C3A" transform="translate(231,174)"/>
<path d="M0 0 C2.578125 2.28515625 2.578125 2.28515625 5.25 5.0625 C6.14203125 5.98160156 7.0340625 6.90070313 7.953125 7.84765625 C8.62859375 8.55792969 9.3040625 9.26820313 10 10 C9.01 11.485 9.01 11.485 8 13 C7.32195312 12.2059375 6.64390625 11.411875 5.9453125 10.59375 C0.86791757 4.63569701 0.86791757 4.63569701 -5.95703125 1.26953125 C-8.39406069 1.30788221 -10.61932642 1.48874906 -13 2 C-8.63105636 -0.26777795 -4.79406322 -1.84519699 0 0 Z " fill="#AD4734" transform="translate(131,169)"/>
<path d="M0 0 C3.46792464 5.20188696 2.68135566 12.37589274 1.546875 18.41015625 C1.10081349 19.96181307 0.56303053 21.48685546 0 23 C-0.66 23 -1.32 23 -2 23 C-2.99 19.04 -3.98 15.08 -5 11 C-2.03 11.495 -2.03 11.495 1 12 C0.67 8.04 0.34 4.08 0 0 Z " fill="#C37F3E" transform="translate(156,222)"/>
<path d="M0 0 C1.65 0 3.3 0 5 0 C4.01 0.495 4.01 0.495 3 1 C1.78063901 5.12658694 1.88530978 9.21275436 1.90234375 13.48828125 C1.9037587 14.19147995 1.90517365 14.89467865 1.90663147 15.6191864 C1.91219891 17.85033544 1.92474525 20.08138164 1.9375 22.3125 C1.94251921 23.83137875 1.94708138 25.35025909 1.95117188 26.86914062 C1.96215764 30.57946012 1.97939966 34.28972001 2 38 C1.67 38 1.34 38 1 38 C0.06921053 25.31799345 -0.11185009 12.71362727 0 0 Z " fill="#C16035" transform="translate(223,183)"/>
<path d="M0 0 C0.33 0 0.66 0 1 0 C1 5.28 1 10.56 1 16 C1.33 16 1.66 16 2 16 C3.92471317 21.33835539 5.39891424 26.34979382 6 32 C1.93823048 28.49847456 -0.56989541 24.35069995 -1.25512695 19.01245117 C-1.3293469 16.95837059 -1.3121348 14.92933176 -1.25 12.875 C-1.24484375 12.18535156 -1.2396875 11.49570313 -1.234375 10.78515625 C-1.17771036 7.08070522 -0.86912004 3.60264273 0 0 Z " fill="#A85E30" transform="translate(141,193)"/>
<path d="M0 0 C1.04458319 0.87151615 2.08546407 1.74746967 3.125 2.625 C3.77210937 3.16769531 4.41921875 3.71039063 5.0859375 4.26953125 C6.84009164 5.85542979 8.2463676 7.49670999 9.75 9.3125 C13.17051312 12.89188941 17.06139787 12.80245591 21.8046875 12.9921875 C22.52914062 12.99476563 23.25359375 12.99734375 24 13 C24 13.33 24 13.66 24 14 C22.10489301 14.08160748 20.20875496 14.13946459 18.3125 14.1875 C16.72888672 14.23970703 16.72888672 14.23970703 15.11328125 14.29296875 C9.70509546 13.78404286 6.65208367 10.98540344 3.1875 7 C2.58292969 6.319375 1.97835937 5.63875 1.35546875 4.9375 C0 3 0 3 0 0 Z " fill="#BD3333" transform="translate(102,128)"/>
<path d="M0 0 C0.66 0 1.32 0 2 0 C2.09796875 0.72445312 2.1959375 1.44890625 2.296875 2.1953125 C3.40849305 9.38249819 5.0015722 14.0015722 10.25 19.25 C10.8275 19.8275 11.405 20.405 12 21 C12 21.66 12 22.32 12 23 C6.97101246 21.56314642 5.04322498 19.05763331 2 15 C0.58365167 12.16730334 0.6536995 9.52533562 0.4375 6.375 C0.35371094 5.18648437 0.26992187 3.99796875 0.18359375 2.7734375 C0.12300781 1.85820312 0.06242187 0.94296875 0 0 Z " fill="#99362A" transform="translate(106,147)"/>
<path d="M0 0 C0.804375 0.350625 1.60875 0.70125 2.4375 1.0625 C6.40909347 2.10765618 9.06677712 1.79771289 13.046875 1.09375 C13.69140625 1.0628125 14.3359375 1.031875 15 1 C15.66 1.66 16.32 2.32 17 3 C14.36425127 5.63574873 12.90557548 6.01066083 9.125 6.4375 C4.72450018 6.29740918 2.38728545 4.70982836 -1 2 C-0.67 1.34 -0.34 0.68 0 0 Z " fill="#AC6930" transform="translate(112,238)"/>
<path d="M0 0 C0 2.64 0 5.28 0 8 C-0.66 7.01 -1.32 6.02 -2 5 C-2.51949219 5.49371094 -3.03898438 5.98742187 -3.57421875 6.49609375 C-4.27160156 7.13675781 -4.96898437 7.77742187 -5.6875 8.4375 C-6.71423828 9.39462891 -6.71423828 9.39462891 -7.76171875 10.37109375 C-10.22289422 12.16221098 -12.00816574 12.62798558 -15 13 C-4.84615385 0 -4.84615385 0 0 0 Z " fill="#AF442F" transform="translate(241,161)"/>
<path d="M0 0 C0.33 0 0.66 0 1 0 C1.66 2.31 2.32 4.62 3 7 C5.31 7.33 7.62 7.66 10 8 C10 9.32 10 10.64 10 12 C7.36 12.33 4.72 12.66 2 13 C0.24252386 8.49646738 -0.19294408 4.82360189 0 0 Z " fill="#FBB545" transform="translate(165,204)"/>
<path d="M0 0 C0.99 0.66 1.98 1.32 3 2 C-1.74821731 5.76582753 -4.977331 6.07461791 -10.84375 5.7421875 C-13.54538582 6.06520917 -14.22309102 7.02680456 -16 9 C-16.66 9 -17.32 9 -18 9 C-17.67 7.68 -17.34 6.36 -17 5 C-16.34 5 -15.68 5 -15 5 C-15 4.34 -15 3.68 -15 3 C-11.04 3.33 -7.08 3.66 -3 4 C-2.67 3.01 -2.34 2.02 -2 1 C-1.34 0.67 -0.68 0.34 0 0 Z " fill="#903628" transform="translate(226,165)"/>
<path d="M0 0 C7.85131668 0.34740339 14.64925625 2.28451906 22 5 C22 5.33 22 5.66 22 6 C15.05514697 6.48452463 8.7009632 4.69287491 2 3 C2 2.34 2 1.68 2 1 C1.34 0.67 0.68 0.34 0 0 Z " fill="#BE292E" transform="translate(85,59)"/>
<path d="M0 0 C0.66 0 1.32 0 2 0 C1.5585081 3.42156219 0.50471539 6.21361339 -0.9375 9.3125 C-2.86603092 13.49215246 -4.01988739 17.50781719 -5 22 C-5.66 21.67 -6.32 21.34 -7 21 C-6.09077769 12.97984496 -4.47555395 6.76457772 0 0 Z " fill="#CB8640" transform="translate(192,223)"/>
<path d="M0 0 C2.2477975 2.05233685 3.0022242 3.00667261 4 6 C4.0293992 8.51573117 3.93463573 11.01346052 3.83984375 13.52734375 C4.0114829 16.17728479 4.65941785 17.73415331 6 20 C4.68 19.67 3.36 19.34 2 19 C0.99655747 12.69264693 0.49126929 6.36559573 0 0 Z " fill="#C44B39" transform="translate(133,146)"/>
<path d="M0 0 C0.99 0.66 1.98 1.32 3 2 C-1.95 6.29 -6.9 10.58 -12 15 C-12.66 14.01 -13.32 13.02 -14 12 C-12.75 10.5 -12.75 10.5 -11 9 C-9.68 9 -8.36 9 -7 9 C-6.95875 8.443125 -6.9175 7.88625 -6.875 7.3125 C-5.53069626 3.75969726 -2.99025811 2.29041047 0 0 Z " fill="#B23531" transform="translate(233,102)"/>
<path d="M0 0 C0 0.33 0 0.66 0 1 C-0.62648437 1.09796875 -1.25296875 1.1959375 -1.8984375 1.296875 C-3.12433594 1.52117187 -3.12433594 1.52117187 -4.375 1.75 C-5.18710938 1.88921875 -5.99921875 2.0284375 -6.8359375 2.171875 C-9.13919939 2.81504209 -9.13919939 2.81504209 -10.26953125 4.890625 C-11.26461925 7.76414115 -11.31472048 9.97868341 -11 13 C-9.62073227 15.34261608 -9.62073227 15.34261608 -8 17 C-8.33 17.66 -8.66 18.32 -9 19 C-11.70902496 16.90050565 -13.73024693 15.2529027 -14.47265625 11.8046875 C-14.62074084 7.90298036 -14.51793685 5.71439566 -12.1875 2.5 C-8.16164793 -0.26058428 -4.75514678 -0.08971975 0 0 Z " fill="#DC4939" transform="translate(174,198)"/>
<path d="M0 0 C1.24546405 2.49092811 0.7767578 3.41080733 0 6 C0.66 6 1.32 6 2 6 C1.64989059 15.17286652 1.64989059 15.17286652 -1.0625 18.625 C-2.0215625 19.305625 -2.0215625 19.305625 -3 20 C-3.33 19.01 -3.66 18.02 -4 17 C-3.34 17 -2.68 17 -2 17 C-2.02320313 15.94039062 -2.04640625 14.88078125 -2.0703125 13.7890625 C-2.08906944 12.4010487 -2.10726972 11.0130273 -2.125 9.625 C-2.14175781 8.92632812 -2.15851563 8.22765625 -2.17578125 7.5078125 C-2.19344267 5.67102514 -2.10303261 3.83398037 -2 2 C-1.34 1.34 -0.68 0.68 0 0 Z " fill="#CB473A" transform="translate(232,146)"/>
<path d="M0 0 C0.33 0 0.66 0 1 0 C0.4509121 6.86359876 -1.52955464 10.86643355 -6.75 15.375 C-7.4925 15.91125 -8.235 16.4475 -9 17 C-9.66 16.67 -10.32 16.34 -11 16 C-10.34 15.01 -9.68 14.02 -9 13 C-8.34 13.33 -7.68 13.66 -7 14 C-6.8453125 13.1646875 -6.8453125 13.1646875 -6.6875 12.3125 C-5.86071696 9.53150251 -4.55238908 7.44799816 -3 5 C-2.46375 4.071875 -1.9275 3.14375 -1.375 2.1875 C-0.92125 1.465625 -0.4675 0.74375 0 0 Z " fill="#AB6D2F" transform="translate(89,238)"/>
<path d="M0 0 C0 8.25 0 16.5 0 25 C-0.33 25 -0.66 25 -1 25 C-1 17.41 -1 9.82 -1 2 C-1.99 2 -2.98 2 -4 2 C-4 2.66 -4 3.32 -4 4 C-5.32 4.33 -6.64 4.66 -8 5 C-7.6875 3.0625 -7.6875 3.0625 -7 1 C-4 0 -4 0 0 0 Z " fill="#CF3B34" transform="translate(252,93)"/>
<path d="M0 0 C0.99 0.495 0.99 0.495 2 1 C2.33 6.94 2.66 12.88 3 19 C2.01 18.67 1.02 18.34 0 18 C0 12.06 0 6.12 0 0 Z " fill="#C43030" transform="translate(88,105)"/>
<path d="M0 0 C5.875 0.875 5.875 0.875 7 2 C7.04063832 3.66617115 7.042721 5.33388095 7 7 C5.68 7.33 4.36 7.66 3 8 C0.37613513 4.93882432 0 4.26826873 0 0 Z " fill="#562A23" transform="translate(157,221)"/>
<path d="M0 0 C1.32 0.33 2.64 0.66 4 1 C4 2.98 4 4.96 4 7 C3.01 7.495 3.01 7.495 2 8 C2 8.99 2 9.98 2 11 C-1.3 11 -4.6 11 -8 11 C-7.67 9.68 -7.34 8.36 -7 7 C-4.525 7.99 -4.525 7.99 -2 9 C0.41121859 7.04366025 0.41121859 7.04366025 0.125 3.375 C0.08375 2.26125 0.0425 1.1475 0 0 Z " fill="#B43C2E" transform="translate(222,151)"/>
<path d="M0 0 C0 3.23830467 -0.29194726 4.31591712 -2 7 C-6.24786978 10.78864061 -10.9236475 13.48865437 -16 16 C-11.17917294 10.03739811 -5.77505724 5.03320206 0 0 Z " fill="#932426" transform="translate(195,94)"/>
<path d="M0 0 C2.125 0.375 2.125 0.375 4 1 C3.34 1.433125 2.68 1.86625 2 2.3125 C-0.74148407 5.99636922 -0.67161847 8.85247195 -0.5390625 13.359375 C0.06489695 16.317901 0.70165595 17.29218311 3 19.1875 C3.99 19.785625 4.98 20.38375 6 21 C5.67 21.66 5.34 22.32 5 23 C1.96845963 21.44556221 -0.08622929 19.83963485 -2 17 C-2.74013759 11.92708618 -2.68906233 7.09784166 -2 2 C-1.34 1.34 -0.68 0.68 0 0 Z " fill="#993431" transform="translate(160,197)"/>
<path d="M0 0 C3.65316671 1.24976756 4.78065836 1.67098753 7 5 C7.51091324 8.91700154 7.30691974 10.52938973 5.125 13.875 C4.42375 14.57625 3.7225 15.2775 3 16 C2.34 16 1.68 16 1 16 C1 15.34 1 14.68 1 14 C1.66 13.67 2.32 13.34 3 13 C3 9.37 3 5.74 3 2 C2.01 2 1.02 2 0 2 C0 1.34 0 0.68 0 0 Z " fill="#E9563C" transform="translate(174,199)"/>
<path d="M0 0 C0 0.66 0 1.32 0 2 C0.66 2 1.32 2 2 2 C2 2.66 2 3.32 2 4 C-0.31 4.33 -2.62 4.66 -5 5 C-5.33 6.98 -5.66 8.96 -6 11 C-9 9 -9 9 -9.5 6.625 C-9 4 -9 4 -6.75 1.6875 C-4 0 -4 0 0 0 Z " fill="#BC3A31" transform="translate(220,147)"/>
<path d="M0 0 C0.33 0 0.66 0 1 0 C1 11.88 1 23.76 1 36 C0.01 36.495 0.01 36.495 -1 37 C-1.66 36.34 -2.32 35.68 -3 35 C-2.01 34.505 -2.01 34.505 -1 34 C-0.67 22.78 -0.34 11.56 0 0 Z " fill="#D26533" transform="translate(117,186)"/>
<path d="M0 0 C1.99954746 -0.04254356 4.00041636 -0.04080783 6 0 C7 1 7 1 7.0625 3.5625 C7.041875 4.366875 7.02125 5.17125 7 6 C5.00045254 6.04254356 2.99958364 6.04080783 1 6 C0 5 0 5 -0.0625 2.4375 C-0.041875 1.633125 -0.02125 0.82875 0 0 Z " fill="#FCFCF4" transform="translate(167,203)"/>
<path d="M0 0 C-1.43714007 3.35829104 -3.20977399 5.39970698 -5.9375 7.8125 C-6.62714844 8.43769531 -7.31679687 9.06289062 -8.02734375 9.70703125 C-9.00380859 10.34705078 -9.00380859 10.34705078 -10 11 C-10.99 10.67 -11.98 10.34 -13 10 C-10.15074359 6.01104102 -5.37644015 0 0 0 Z " fill="#BE2E30" transform="translate(224,71)"/>
<path d="M0 0 C0.99 0 1.98 0 3 0 C3.391875 0.495 3.78375 0.99 4.1875 1.5 C7.16545197 3.96451197 10.23230918 3.18529627 14 3 C14 2.34 14 1.68 14 1 C15.32 1.66 16.64 2.32 18 3 C13.89688443 5.98408405 11.04187047 6.61917707 6 6 C2.5625 4.125 2.5625 4.125 0 2 C0 1.34 0 0.68 0 0 Z " fill="#945A28" transform="translate(211,238)"/>
<path d="M0 0 C0.66 0.33 1.32 0.66 2 1 C2.21824777 7.0018137 1.5056904 12.19233704 0 18 C-2 16 -2 16 -2.01171875 12.55859375 C-1.9145846 11.18407904 -1.80604554 9.81033381 -1.6875 8.4375 C-1.63916016 7.73947266 -1.59082031 7.04144531 -1.54101562 6.32226562 C-1.14425223 1.14425223 -1.14425223 1.14425223 0 0 Z " fill="#CD6940" transform="translate(143,184)"/>
<path d="M0 0 C5.29158974 1.40071493 7.77478044 4.85487245 11 9 C10.34 9.66 9.68 10.32 9 11 C5.66666667 7.66666667 2.33333333 4.33333333 -1 1 C-0.67 0.67 -0.34 0.34 0 0 Z " fill="#B43B34" transform="translate(116,110)"/>
<path d="M0 0 C0.33 0.66 0.66 1.32 1 2 C-0.25 4.625 -0.25 4.625 -2 7 C-2.99 7 -3.98 7 -5 7 C-5 9.31 -5 11.62 -5 14 C-7 12 -7 12 -7.5625 8.6875 C-7 5 -7 5 -5.43359375 3.4296875 C-3.6660222 2.17988943 -1.89332035 1.04808805 0 0 Z " fill="#81332B" transform="translate(182,214)"/>
<path d="M0 0 C1.875 1 1.875 1 3 3 C2.94003672 5.76376193 2.49377694 8.26178244 2 11 C1.34 10.67 0.68 10.34 0 10 C0 8.35 0 6.7 0 5 C-3.3863251 3.49069817 -3.3863251 3.49069817 -7 3 C-7 2.34 -7 1.68 -7 1 C-4.45132831 -0.27433584 -2.82594567 -0.27570202 0 0 Z " fill="#A7352E" transform="translate(126,148)"/>
<path d="M0 0 C2.75230148 0.06009392 5.4992444 0.14712621 8.25 0.25 C9.41595703 0.27126953 9.41595703 0.27126953 10.60546875 0.29296875 C16.42997175 0.54187913 16.42997175 0.54187913 19.546875 3.046875 C20.02640625 3.69140625 20.5059375 4.3359375 21 5 C20.01 5.495 20.01 5.495 19 6 C18.360625 5.525625 17.72125 5.05125 17.0625 4.5625 C13.05419915 2.51744855 9.94461006 2.89679276 5.5234375 3.1875 C3 3 3 3 1.1640625 1.5 C0.77992187 1.005 0.39578125 0.51 0 0 Z " fill="#DB453D" transform="translate(112,141)"/>
<path d="M0 0 C4.41459584 0.40226457 6.53697056 3.40387125 9.25 6.5625 C9.70890625 7.08263672 10.1678125 7.60277344 10.640625 8.13867188 C11.7682143 9.41895555 12.88517315 10.70858798 14 12 C13.67 12.66 13.34 13.32 13 14 C10.83031809 11.85714108 8.66416525 9.71091768 6.5 7.5625 C5.87996094 6.95083984 5.25992188 6.33917969 4.62109375 5.70898438 C4.03457031 5.12568359 3.44804687 4.54238281 2.84375 3.94140625 C2.02680664 3.13231812 2.02680664 3.13231812 1.19335938 2.30688477 C0 1 0 1 0 0 Z " fill="#D74D40" transform="translate(159,109)"/>
<path d="M0 0 C1 2 1 2 0.25 4.4375 C-1.68513654 8.40452991 -3.00492331 9.62928516 -7.1875 11.1875 C-8.115625 11.455625 -9.04375 11.72375 -10 12 C-9.61328125 11.55269531 -9.2265625 11.10539063 -8.828125 10.64453125 C-5.81609925 7.1478974 -2.85678969 3.62592537 0 0 Z " fill="#A7442D" transform="translate(201,165)"/>
<path d="M0 0 C0.66 0.33 1.32 0.66 2 1 C1.814375 1.78375 1.62875 2.5675 1.4375 3.375 C0.74037734 5.97089775 0.74037734 5.97089775 2 8 C4.9737344 9.09036928 5.88407501 9.03864166 9 8 C9 8.66 9 9.32 9 10 C6 12 6 12 3 12 C3 11.34 3 10.68 3 10 C2.0409375 9.8453125 2.0409375 9.8453125 1.0625 9.6875 C0.381875 9.460625 -0.29875 9.23375 -1 9 C-2.25541557 5.23375329 -1.37061958 3.62811066 0 0 Z " fill="#C73F2F" transform="translate(117,151)"/>
<path d="M0 0 C3.2826932 1.49076434 5.93077441 3.38620321 8.75 5.625 C9.94882813 6.57246094 9.94882813 6.57246094 11.171875 7.5390625 C11.77515625 8.02117187 12.3784375 8.50328125 13 9 C12.34 9.66 11.68 10.32 11 11 C10.34 10.67 9.68 10.34 9 10 C9 9.01 9 8.02 9 7 C8.443125 6.9175 7.88625 6.835 7.3125 6.75 C4.26322081 5.76104459 2.34810037 4.15242534 0 2 C0 1.34 0 0.68 0 0 Z " fill="#CF3437" transform="translate(118,71)"/>
<path d="M0 0 C0.66 0 1.32 0 2 0 C3.15837626 4.05431692 2.83691257 6.21812119 1 10 C-0.65 10 -2.3 10 -4 10 C-4.33 9.01 -4.66 8.02 -5 7 C-3.35 6.67 -1.7 6.34 0 6 C0 4.02 0 2.04 0 0 Z " fill="#BC6D2E" transform="translate(123,228)"/>
<path d="M0 0 C3.875 1.75 3.875 1.75 5 4 C3.68 4 2.36 4 1 4 C1.33 6.31 1.66 8.62 2 11 C1.01 10.34 0.02 9.68 -1 9 C-1.47114738 6.2572492 -1.17805784 3.80441103 -1 1 C-0.67 0.67 -0.34 0.34 0 0 Z " fill="#AB4132" transform="translate(100,161)"/>
<path d="M0 0 C3.3 0 6.6 0 10 0 C10.66 1.32 11.32 2.64 12 4 C11.43796875 3.83628906 10.8759375 3.67257813 10.296875 3.50390625 C7.86940944 2.97135003 5.73110319 2.90101319 3.25 2.9375 C2.05117187 2.95103516 2.05117187 2.95103516 0.828125 2.96484375 C-0.07679688 2.98224609 -0.07679688 2.98224609 -1 3 C-0.67 2.01 -0.34 1.02 0 0 Z " fill="#C23F38" transform="translate(166,196)"/>
<path d="M0 0 C1.65 0 3.3 0 5 0 C4.01 0.495 4.01 0.495 3 1 C1.70069762 5.28769786 1.92483226 9.56510345 2 14 C1.34 13.67 0.68 13.34 0 13 C0 8.71 0 4.42 0 0 Z " fill="#B44F30" transform="translate(223,183)"/>
<path d="M0 0 C-1.15173355 2.46800047 -2.04783565 4.04783565 -4 6 C-4.46006346 8.20250992 -4.46006346 8.20250992 -4.625 10.625 C-4.69976562 11.44226563 -4.77453125 12.25953125 -4.8515625 13.1015625 C-4.92503906 14.04128906 -4.92503906 14.04128906 -5 15 C-5.33 15 -5.66 15 -6 15 C-6.08107583 13.06318839 -6.13922475 11.1254066 -6.1875 9.1875 C-6.22230469 8.10855469 -6.25710937 7.02960938 -6.29296875 5.91796875 C-6 3 -6 3 -4.67578125 1.11328125 C-3 0 -3 0 0 0 Z " fill="#BD5736" transform="translate(203,179)"/>
<path d="M0 0 C-3.96 3.465 -3.96 3.465 -8 7 C-8.66 6.01 -9.32 5.02 -10 4 C-4.5 -1.125 -4.5 -1.125 0 0 Z " fill="#8B2527" transform="translate(194,141)"/>
<path d="M0 0 C0.66 0.33 1.32 0.66 2 1 C0.64531705 5.87685861 -1.71675909 7.48592381 -6 10 C-6.66 9.01 -7.32 8.02 -8 7 C-7.01 6.67 -6.02 6.34 -5 6 C-3.57142881 4.59894424 -3.57142881 4.59894424 -2.3125 2.9375 C-1.1678125 1.4834375 -1.1678125 1.4834375 0 0 Z " fill="#851F21" transform="translate(177,110)"/>
<path d="M0 0 C3 1 3 1 4 3 C5.97888961 3.72693904 7.97954558 4.39816251 10 5 C10 6.65 10 8.3 10 10 C9.34 9.01 8.68 8.02 8 7 C4.43230448 6.26393501 4.43230448 6.26393501 1 6 C0.67 4.02 0.34 2.04 0 0 Z " fill="#612C29" transform="translate(155,216)"/>
<path d="M0 0 C1.35902931 2.71805862 1 4.96915383 1 8 C1.29714023 10.00569659 1.62061383 12.00822259 2 14 C-0.0625 12.5625 -0.0625 12.5625 -2 10 C-2.10781211 6.91657367 -1.71177387 3.99918391 -1 1 C-0.67 0.67 -0.34 0.34 0 0 Z " fill="#F46539" transform="translate(164,201)"/>
<path d="M0 0 C0.33 0 0.66 0 1 0 C1.41382683 3.75071615 1.62399396 7.26652354 1 11 C-1.13637845 13.52724468 -3.00051522 14.44669538 -6 16 C-6 15.01 -6 14.02 -6 13 C-5.195625 12.278125 -4.39125 11.55625 -3.5625 10.8125 C-0.16782619 7.0866385 -0.25114865 4.93925682 0 0 Z " fill="#A53A35" transform="translate(182,203)"/>
<path d="M0 0 C1.32 0.33 2.64 0.66 4 1 C0.04 4.465 0.04 4.465 -4 8 C-4.66 7.34 -5.32 6.68 -6 6 C-5.09972412 4.96468274 -4.17906965 3.94705835 -3.25 2.9375 C-2.48429688 2.08478516 -2.48429688 2.08478516 -1.703125 1.21484375 C-1.14109375 0.81394531 -0.5790625 0.41304687 0 0 Z " fill="#9C2B2D" transform="translate(199,132)"/>
<path d="M0 0 C3.71888239 0.50712033 6.73454239 1.11608215 10 3 C10 3.99 10 4.98 10 6 C7.69 5.34 5.38 4.68 3 4 C3 3.34 3 2.68 3 2 C2.01 1.67 1.02 1.34 0 1 C0 0.67 0 0.34 0 0 Z " fill="#AE3032" transform="translate(89,93)"/>
<path d="M0 0 C1.98 0.99 1.98 0.99 4 2 C4.609375 4.3828125 4.609375 4.3828125 4.75 7.125 C4.80671875 8.03507813 4.8634375 8.94515625 4.921875 9.8828125 C4.94765625 10.58148438 4.9734375 11.28015625 5 12 C4.34 12 3.68 12 3 12 C2.01 8.04 1.02 4.08 0 0 Z " fill="#8F6130" transform="translate(151,233)"/>
<path d="M0 0 C1.65 0.33 3.3 0.66 5 1 C4.34 1.4125 3.68 1.825 3 2.25 C2.34 2.8275 1.68 3.405 1 4 C1 5.32 1 6.64 1 8 C2.65 8.33 4.3 8.66 6 9 C6 9.33 6 9.66 6 10 C3.69 10 1.38 10 -1 10 C-2.27351308 7.45297384 -1.80191925 6.5717055 -1.0625 3.875 C-0.86785156 3.15054688 -0.67320312 2.42609375 -0.47265625 1.6796875 C-0.31667969 1.12539062 -0.16070312 0.57109375 0 0 Z " fill="#AE632D" transform="translate(217,226)"/>
<path d="M0 0 C0 2.64 0 5.28 0 8 C-0.66 7.01 -1.32 6.02 -2 5 C-3.65 5.33 -5.3 5.66 -7 6 C-2.38461538 0 -2.38461538 0 0 0 Z " fill="#CF503E" transform="translate(241,161)"/>
<path d="M0 0 C2.25 -0.3125 2.25 -0.3125 5 0 C7.3125 2.5 7.3125 2.5 9 5 C5.64404172 4.40072174 3.62198774 3.15377564 1 1 C1.66 2.65 2.32 4.3 3 6 C2.01 6.495 2.01 6.495 1 7 C0.67 4.69 0.34 2.38 0 0 Z " fill="#D8523D" transform="translate(101,165)"/>
<path d="M0 0 C10.55808656 -0.3690205 10.55808656 -0.3690205 15 2 C15 2.33 15 2.66 15 3 C9.5814234 3.22577402 5.22512279 2.46670113 0 1 C0 0.67 0 0.34 0 0 Z " fill="#CD2D32" transform="translate(92,62)"/>
<path d="M0 0 C-0.33 0.99 -0.66 1.98 -1 3 C-6.61 3 -12.22 3 -18 3 C-18 2.67 -18 2.34 -18 2 C-16.64455078 1.90912109 -16.64455078 1.90912109 -15.26171875 1.81640625 C-13.49248047 1.69072266 -13.49248047 1.69072266 -11.6875 1.5625 C-9.92986328 1.44068359 -9.92986328 1.44068359 -8.13671875 1.31640625 C-5.29407556 1.02966391 -2.82033039 0 0 0 Z " fill="#F6A043" transform="translate(79,252)"/>
<path d="M0 0 C2.31 1.98 4.62 3.96 7 6 C6.67 6.66 6.34 7.32 6 8 C3.53199953 6.84826645 1.95216435 5.95216435 0 4 C0 2.68 0 1.36 0 0 Z " fill="#CC5C3D" transform="translate(116,175)"/>
<path d="M0 0 C0.66 0.33 1.32 0.66 2 1 C0.71451591 2.33929505 -0.57858155 3.67128643 -1.875 5 C-2.59429687 5.7425 -3.31359375 6.485 -4.0546875 7.25 C-6 9 -6 9 -8 9 C-7.00217242 5.64367085 -6.38142405 4.26048472 -3.4375 2.25 C-2.2309375 1.63125 -2.2309375 1.63125 -1 1 C-0.67 0.67 -0.34 0.34 0 0 Z " fill="#E73F3A" transform="translate(202,90)"/>
<path d="M0 0 C0.33 0 0.66 0 1 0 C1.55353075 11.52164009 1.55353075 11.52164009 -2 17 C-2.33 17 -2.66 17 -3 17 C-3.125 14.625 -3.125 14.625 -3 12 C-2.34 11.34 -1.68 10.68 -1 10 C-0.53837573 7.56747339 -0.53837573 7.56747339 -0.375 4.875 C-0.30023438 3.96492187 -0.22546875 3.05484375 -0.1484375 2.1171875 C-0.09945312 1.41851562 -0.05046875 0.71984375 0 0 Z " fill="#5D2B1D" transform="translate(188,203)"/>
<path d="M0 0 C1.48828125 1.14453125 1.48828125 1.14453125 3 3 C3.29296875 5.69921875 3.29296875 5.69921875 3.1875 8.6875 C3.16042969 9.68136719 3.13335937 10.67523438 3.10546875 11.69921875 C3.07066406 12.45847656 3.03585938 13.21773437 3 14 C2.67 14 2.34 14 2 14 C1.66179834 12.4176994 1.32964061 10.83410625 1 9.25 C0.814375 8.36828125 0.62875 7.4865625 0.4375 6.578125 C0 4 0 4 0 0 Z " fill="#D55142" transform="translate(133,146)"/>
<path d="M0 0 C0.33 0.99 0.66 1.98 1 3 C-4.75 8 -4.75 8 -7 8 C-6.67 6.68 -6.34 5.36 -6 4 C-4.68 4 -3.36 4 -2 4 C-2 3.01 -2 2.02 -2 1 C-1.34 0.67 -0.68 0.34 0 0 Z " fill="#9E4532" transform="translate(184,146)"/>
<path d="M0 0 C2.475 0.495 2.475 0.495 5 1 C5 2.65 5 4.3 5 6 C3.68 6.33 2.36 6.66 1 7 C1.020625 6.21625 1.04125 5.4325 1.0625 4.625 C1.18684063 2.01885039 1.18684063 2.01885039 0 0 Z " fill="#A55B2B" transform="translate(222,228)"/>
<path d="M0 0 C0.66 0.33 1.32 0.66 2 1 C1.34 4.63 0.68 8.26 0 12 C-0.33 12 -0.66 12 -1 12 C-1 9.36 -1 6.72 -1 4 C-2.32 3.67 -3.64 3.34 -5 3 C-2.625 1.4375 -2.625 1.4375 0 0 Z " fill="#472112" transform="translate(183,221)"/>
<path d="M0 0 C-0.33 1.32 -0.66 2.64 -1 4 C-1.99 3.67 -2.98 3.34 -4 3 C-5.39439664 2.93334624 -6.79169875 2.91461801 -8.1875 2.9375 C-9.445625 2.958125 -10.70375 2.97875 -12 3 C-8.04953338 0.80529632 -4.51236303 0 0 0 Z " fill="#772D20" transform="translate(130,168)"/>
<path d="M0 0 C4.29 0 8.58 0 13 0 C10.60236815 2.39763185 9.66726502 2.34280586 6.375 2.625 C5.55773437 2.69976562 4.74046875 2.77453125 3.8984375 2.8515625 C3.27195312 2.90054688 2.64546875 2.94953125 2 3 C2 2.34 2 1.68 2 1 C1.34 0.67 0.68 0.34 0 0 Z " fill="#E45741" transform="translate(116,167)"/>
<path d="M0 0 C6.52307692 0.61538462 6.52307692 0.61538462 8.9375 2.5625 C9.288125 3.036875 9.63875 3.51125 10 4 C9.34 4.66 8.68 5.32 8 6 C6.66402348 5.19185349 5.331275 4.37836819 4 3.5625 C3.2575 3.11003906 2.515 2.65757813 1.75 2.19140625 C1.1725 1.79824219 0.595 1.40507813 0 1 C0 0.67 0 0.34 0 0 Z " fill="#982C2C" transform="translate(99,99)"/>
<path d="M0 0 C2.375 0.1875 2.375 0.1875 5 1 C6.3125 3.5625 6.3125 3.5625 7 6 C2.32307692 4.52307692 2.32307692 4.52307692 0.6875 1.875 C0.460625 1.25625 0.23375 0.6375 0 0 Z " fill="#AD6D2C" transform="translate(255,248)"/>
<path d="M0 0 C0.33 0 0.66 0 1 0 C1.33 3.96 1.66 7.92 2 12 C1.34 11.67 0.68 11.34 0 11 C-1.27368421 3.82105263 -1.27368421 3.82105263 0 0 Z " fill="#7D4922" transform="translate(209,226)"/>
<path d="M0 0 C0.99 0.33 1.98 0.66 3 1 C3 1.66 3 2.32 3 3 C2.34 3 1.68 3 1 3 C1.33 6.63 1.66 10.26 2 14 C1.34 14 0.68 14 0 14 C0 9.38 0 4.76 0 0 Z " fill="#5D3111" transform="translate(175,241)"/>
<path d="M0 0 C0.33 0 0.66 0 1 0 C0.56179109 4.55737263 0.14958831 7.57653445 -3 11 C-3.32434322 6.35108046 -2.776422 3.77593392 0 0 Z " fill="#B87533" transform="translate(89,238)"/>
<path d="M0 0 C1.9375 0.6875 1.9375 0.6875 4 2 C4.75 4.625 4.75 4.625 5 7 C3.02 5.35 1.04 3.7 -1 2 C-0.67 1.34 -0.34 0.68 0 0 Z " fill="#A64231" transform="translate(103,171)"/>
<path d="M0 0 C0.66 0.33 1.32 0.66 2 1 C0.38405168 3.04119788 -1.2856382 5.04072937 -3 7 C-3.66 7 -4.32 7 -5 7 C-3.75023244 3.34683329 -3.32901247 2.21934164 0 0 Z " fill="#E1913F" transform="translate(163,255)"/>
<path d="M0 0 C1.98 1.65 3.96 3.3 6 5 C5.01 6.485 5.01 6.485 4 8 C1.10067643 5.60490662 0.49831724 3.68754757 0 0 Z " fill="#BF5339" transform="translate(135,174)"/>
<path d="M0 0 C0 3 0 3 -1.53125 4.60546875 C-2.1809375 5.12753906 -2.830625 5.64960937 -3.5 6.1875 C-4.1496875 6.71730469 -4.799375 7.24710937 -5.46875 7.79296875 C-5.9740625 8.19128906 -6.479375 8.58960937 -7 9 C-6.19095897 4.20719998 -3.74015409 2.86479887 0 0 Z " fill="#C32B2F" transform="translate(184,106)"/>
<path d="M0 0 C1.9375 0.6875 1.9375 0.6875 4 2 C4.75 4.625 4.75 4.625 5 7 C2.69 5.35 0.38 3.7 -2 2 C-1.34 1.34 -0.68 0.68 0 0 Z " fill="#A23431" transform="translate(110,104)"/>
<path d="M0 0 C2.0625 0.4375 2.0625 0.4375 4 1 C1.03 3.475 1.03 3.475 -2 6 C-1.125 1.125 -1.125 1.125 0 0 Z " fill="#8C3334" transform="translate(160,197)"/>
<path d="M0 0 C0.99 0.33 1.98 0.66 3 1 C1.71937515 2.7074998 0.38232443 4.37373596 -1 6 C-1.66 6 -2.32 6 -3 6 C-2.67 4.68 -2.34 3.36 -2 2 C-1.34 2 -0.68 2 0 2 C0 1.34 0 0.68 0 0 Z " fill="#B24633" transform="translate(211,168)"/>
<path d="M0 0 C-4.75 4.875 -4.75 4.875 -7 6 C-7.33 5.01 -7.66 4.02 -8 3 C-5.53387212 -0.1151089 -3.89156016 -0.31553191 0 0 Z " fill="#9B322C" transform="translate(227,111)"/>
<path d="M0 0 C0 3.13751221 -0.35179805 4.39757586 -2 7 C-2.99 7.33 -3.98 7.66 -5 8 C-4.45773019 4.20411134 -2.79872437 2.52788007 0 0 Z " fill="#B12D2E" transform="translate(195,94)"/>
<path d="M0 0 C0.33 0.99 0.66 1.98 1 3 C-0.9375 6.1875 -0.9375 6.1875 -3 9 C-3.66 8.01 -4.32 7.02 -5 6 C-4.34 5.34 -3.68 4.68 -3 4 C-1.98758315 2.67607028 -0.98560611 1.34400833 0 0 Z " fill="#B77134" transform="translate(198,216)"/>
<path d="M0 0 C5.75 1.75 5.75 1.75 8 4 C5 5 5 5 2.3125 3.6875 C1.549375 3.130625 0.78625 2.57375 0 2 C0 1.34 0 0.68 0 0 Z " fill="#C62D32" transform="translate(107,65)"/>
</svg>
